<?xml version="1.0" standalone="no"?>
<!DOCTYPE svg PUBLIC "-//W3C//DTD SVG 1.1//EN" "http://www.w3.org/Graphics/SVG/1.1/DTD/svg11.dtd" >
<svg xmlns="http://www.w3.org/2000/svg" xmlns:xlink="http://www.w3.org/1999/xlink" version="1.1">
<metadata>
Created by FontForge 20201107 at Wed Feb  5 17:43:01 2025
 By 
Copyright (c) 1999-2022 Typodermic Fonts Inc. All rights reserved.
</metadata>
<defs>
<font id="EthnocentricRg-Italic" horiz-adv-x="2324" >
  <font-face 
    font-family="Ethnocentric Rg"
    font-weight="400"
    font-style="italic"
    font-stretch="normal"
    units-per-em="2048"
    panose-1="2 0 6 0 0 0 0 0 0 0"
    ascent="1526"
    descent="-522"
    x-height="1370"
    cap-height="1370"
    bbox="-350 -522 4090 1935"
    underline-thickness="40"
    underline-position="-292"
    slope="-10"
    unicode-range="U+0017-2265"
  />
<missing-glyph horiz-adv-x="1484" 
d="M1237 -317h-989q-189 0 -189 161v1723q0 164 189 164h989q188 0 188 -164v-1723q0 -161 -188 -161zM680 553q2 0 97.5 -22.5t178.5 -22.5q169 0 277 119.5t108 296.5q0 68 -27.5 132t-84.5 125t-154.5 113.5t-228.5 89.5l-168 48l-397 -322l499 -141q45 -13 66.5 -29.5
t21.5 -44.5q0 -76 -63 -76q-48 0 -145 30t-150 30q-83 0 -137 -46t-76 -131l-23 -86l381 -110l7 26q3 21 18 21zM430 -6q94 0 158.5 65.5t64.5 161.5q0 101 -82 173.5t-202 72.5q-92 0 -158 -61t-66 -170q0 -101 83.5 -171.5t201.5 -70.5z" />
    <glyph glyph-name=".notdef" horiz-adv-x="1484" 
d="M1237 -317h-989q-189 0 -189 161v1723q0 164 189 164h989q188 0 188 -164v-1723q0 -161 -188 -161zM680 553q2 0 97.5 -22.5t178.5 -22.5q169 0 277 119.5t108 296.5q0 68 -27.5 132t-84.5 125t-154.5 113.5t-228.5 89.5l-168 48l-397 -322l499 -141q45 -13 66.5 -29.5
t21.5 -44.5q0 -76 -63 -76q-48 0 -145 30t-150 30q-83 0 -137 -46t-76 -131l-23 -86l381 -110l7 26q3 21 18 21zM430 -6q94 0 158.5 65.5t64.5 161.5q0 101 -82 173.5t-202 72.5q-92 0 -158 -61t-66 -170q0 -101 83.5 -171.5t201.5 -70.5z" />
    <glyph glyph-name=".null" horiz-adv-x="0" 
 />
    <glyph glyph-name="nonmarkingreturn" horiz-adv-x="682" 
 />
    <glyph glyph-name="uni0017" horiz-adv-x="784" 
 />
    <glyph glyph-name="space" unicode=" " horiz-adv-x="784" 
 />
    <glyph glyph-name="exclam" unicode="!" horiz-adv-x="665" 
d="M362 1370h424l-81 -457l-117 -403h-332l25 403zM133 143q0 104 80 168t190 64q88 0 143.5 -46t55.5 -124q0 -103 -78.5 -165.5t-189.5 -62.5q-88 0 -144.5 45t-56.5 121z" />
    <glyph glyph-name="quotedbl" unicode="&#x22;" horiz-adv-x="913" 
d="M276 1370h379l-221 -549h-129zM741 1370h379l-221 -549h-129z" />
    <glyph glyph-name="numbersign" unicode="#" horiz-adv-x="1370" 
d="M1309 1087h217l-144 -294h-215l-86 -175h217l-141 -292h-215l-158 -326h-233l158 326h-158l-158 -326h-231l155 326h-198l141 292h199l84 175h-199l143 294h199l137 283h234l-137 -283h157l135 283h234zM850 618l84 175h-158l-84 -175h158z" />
    <glyph glyph-name="dollar" unicode="$" horiz-adv-x="1386" 
d="M1030 1370l-35 -182h494l-240 -252h-297l-24 -133h155q157 0 238.5 -56t81.5 -165q0 -167 -114 -264t-361 -97h-103l-39 -221h-168l39 221h-546l237 248h354l23 139h-150q-159 0 -238 62.5t-79 171.5q0 159 115 252.5t358 93.5h96l33 182h170zM1020 608h-127l-23 -139
h125q117 0 117 84q0 30 -22.5 42.5t-69.5 12.5zM639 803h121l22 133h-118q-62 0 -89.5 -18t-27.5 -62q0 -29 22.5 -41t69.5 -12z" />
    <glyph glyph-name="percent" unicode="%" horiz-adv-x="2062" 
d="M772 1417q192 0 286.5 -64.5t94.5 -201.5q0 -223 -133 -331.5t-373 -108.5q-193 0 -288 65t-95 201q0 223 132.5 331.5t375.5 108.5zM678 889q70 0 115.5 9t81 34t51.5 71.5t16 120.5q0 69 -45 92t-158 23q-71 0 -116 -8.5t-81 -33t-51.5 -71t-15.5 -120.5
q0 -69 45.5 -93t157.5 -24zM1745 1446h172l-1360 -1524h-186zM1659 676q192 0 286.5 -64.5t94.5 -201.5q0 -223 -133 -332t-373 -109q-193 0 -288 65.5t-95 201.5q0 223 132.5 331.5t375.5 108.5zM1565 147q70 0 115.5 9t81 34t51.5 72t16 121q0 69 -45 92t-158 23
q-71 0 -116.5 -8.5t-81 -33.5t-51 -71.5t-15.5 -120.5q0 -69 45.5 -93t157.5 -24z" />
    <glyph glyph-name="ampersand" unicode="&#x26;" horiz-adv-x="1787" 
d="M1831 352l-332 -352h-858q-494 0 -494 326q0 150 79.5 248.5t197.5 130.5q-62 25 -102.5 84t-40.5 147q0 208 165.5 321t446.5 113h573l-336 -356h-317q-59 0 -98 -24t-39 -79q0 -77 104 -77h1112l-272 -293h-225l-33 -189h469zM586 430q0 -78 116 -78h318l33 189h-318
q-149 0 -149 -111z" />
    <glyph glyph-name="quotesingle" unicode="'" horiz-adv-x="448" 
d="M276 1370h379l-221 -549h-129z" />
    <glyph glyph-name="parenleft" unicode="(" horiz-adv-x="718" 
d="M686 1624h234q-236 -381 -336.5 -643t-100.5 -539q0 -347 105 -706h-232q-86 316 -86 667q0 303 95.5 579.5t320.5 641.5z" />
    <glyph glyph-name="parenright" unicode=")" horiz-adv-x="718" 
d="M375 1624h231q86 -324 86 -666q0 -292 -95.5 -572.5t-326.5 -649.5h-231q238 375 337 641t99 530q0 335 -100 717z" />
    <glyph glyph-name="asterisk" unicode="*" horiz-adv-x="950" 
d="M260 1024l55 164l246 -80v262h178v-262l248 82l51 -166l-245 -82l153 -211l-141 -100l-156 209l-153 -211l-140 104l152 209z" />
    <glyph glyph-name="plus" unicode="+" horiz-adv-x="1288" 
d="M1348 811l-41 -229h-447l-80 -447h-227l80 447h-445l41 229h443l78 442h229l-78 -442h447z" />
    <glyph glyph-name="comma" unicode="," horiz-adv-x="595" 
d="M162 352h434l-297 -549h-236z" />
    <glyph glyph-name="hyphen" unicode="-" horiz-adv-x="950" 
d="M383 825h684l-254 -264h-684z" />
    <glyph glyph-name="period" unicode="." horiz-adv-x="632" 
d="M113 143q0 104 79 168t189 64q88 0 144.5 -46t56.5 -124q0 -103 -80 -165.5t-191 -62.5q-87 0 -142.5 45t-55.5 121z" />
    <glyph glyph-name="slash" unicode="/" horiz-adv-x="966" 
d="M973 1446h250l-973 -1524h-264z" />
    <glyph glyph-name="zero" unicode="0" horiz-adv-x="1921" 
d="M1208 1393q384 0 574 -138.5t190 -425.5q0 -428 -251 -640t-763 -212q-385 0 -576.5 139.5t-191.5 426.5q0 428 251.5 639t766.5 211zM1020 334q254 0 392 115.5t138 334.5q0 78 -22.5 127.5t-75.5 77t-124.5 37.5t-184.5 10q-255 0 -393 -114.5t-138 -333.5
q0 -63 15.5 -107t45.5 -72.5t81 -45t113.5 -23t152.5 -6.5z" />
    <glyph glyph-name="one" unicode="1" horiz-adv-x="913" 
d="M203 1014l321 356h502l-244 -1370h-424l179 1014h-334z" />
    <glyph glyph-name="two" unicode="2" horiz-adv-x="1914" 
d="M334 1014l336 356h803q266 0 393 -93t127 -261q0 -211 -150 -338t-442 -127h-651q-75 0 -115 -23t-47 -75l-19 -101h1323l-336 -352h-1458l80 449q67 374 580 374h651q87 0 125.5 26t38.5 87q0 42 -31.5 60t-99.5 18h-1108z" />
    <glyph glyph-name="three" unicode="3" horiz-adv-x="1865" 
d="M18 0l332 352h938q152 0 152 111q0 78 -119 78h-821l272 293h608q59 0 97.5 25.5t38.5 82.5q0 37 -30 54.5t-75 17.5h-1147l336 356h858q224 0 349.5 -82.5t125.5 -238.5q0 -71 -21 -131t-56.5 -101t-77 -69t-88.5 -43q76 -23 123 -88t47 -162q0 -455 -635 -455h-1207z
" />
    <glyph glyph-name="four" unicode="4" horiz-adv-x="1966" 
d="M1186 164h-893q-81 0 -127.5 46t-46.5 114q0 106 119 192l1130 803q105 74 207 74q85 0 138.5 -47t53.5 -142q0 -32 -6 -67l-112 -637h393l-307 -336h-144l-28 -164h-406zM1245 500l37 205q17 100 37 178q-51 -45 -172 -131l-172 -121q-135 -96 -207 -139q73 8 231 8h246
z" />
    <glyph glyph-name="five" unicode="5" horiz-adv-x="1841" 
d="M399 1370h1551l-338 -356h-856l-33 -191h666q222 0 337 -79t115 -232q0 -115 -37.5 -206t-116 -161t-210 -107.5t-308.5 -37.5h-1083l334 352h844q86 0 124.5 28.5t38.5 88.5q0 82 -129 82h-1044z" />
    <glyph glyph-name="six" unicode="6" horiz-adv-x="1988" 
d="M1069 1014q-125 0 -230 -51t-169 -140h866q213 0 333 -83t120 -238q0 -88 -27.5 -161t-75.5 -126.5t-118 -95t-150 -68t-177.5 -43.5t-194 -24t-204.5 -7q-422 0 -634.5 144t-212.5 442q0 145 49 272.5t137.5 224.5t207.5 167.5t263.5 106.5t300.5 36h885l-338 -356h-631
zM1456 551h-833q5 -54 29.5 -92.5t64 -62.5t103 -38t136 -19t174.5 -5q188 0 291 17.5t134.5 45.5t31.5 76q0 78 -131 78z" />
    <glyph glyph-name="seven" unicode="7" horiz-adv-x="1730" 
d="M1825 1030l-1059 -1030h-535l805 756q206 194 299 268q-130 -10 -389 -10h-743l334 356h1183q100 0 152.5 -44t52.5 -114q0 -87 -100 -182z" />
    <glyph glyph-name="eight" unicode="8" horiz-adv-x="1951" 
d="M1311 0h-670q-494 0 -494 326q0 150 79.5 248.5t197.5 130.5q-62 25 -102.5 84t-40.5 147q0 208 165.5 321t446.5 113h649q225 0 351 -82.5t126 -238.5q0 -71 -21 -131t-56.5 -101t-77 -69t-88.5 -43q75 -23 121.5 -88.5t46.5 -161.5q0 -455 -633 -455zM1407 541h-672
q-149 0 -149 -111q0 -78 116 -78h672q152 0 152 111q0 78 -119 78zM1497 1014h-684q-59 0 -98 -24t-39 -79q0 -77 104 -77h684q61 0 99.5 25.5t38.5 82.5q0 37 -30 54.5t-75 17.5z" />
    <glyph glyph-name="nine" unicode="9" horiz-adv-x="1988" 
d="M549 352h610q130 0 236 63t174 163q-69 -11 -125 -16t-245 -10t-503 -5q-213 0 -333.5 83t-120.5 238q0 122 53 215.5t140 151t212.5 94t256 50.5t284.5 14q854 0 854 -564q0 -186 -76.5 -343t-207.5 -262.5t-307 -164.5t-374 -59h-864zM776 819q435 0 581.5 4.5
t252.5 16.5q-2 43 -18 75t-48.5 53.5t-72 35t-100.5 20.5t-122.5 9.5t-148.5 2.5q-188 0 -291 -17.5t-134.5 -45.5t-31.5 -76q0 -78 133 -78z" />
    <glyph glyph-name="colon" unicode=":" horiz-adv-x="753" 
d="M166 143q0 104 80 168t190 64q88 0 143.5 -46t55.5 -124q0 -103 -78.5 -165.5t-189.5 -62.5q-88 0 -144.5 45t-56.5 121zM283 807q0 103 79.5 166t190.5 63q88 0 143.5 -45t55.5 -123q0 -104 -78.5 -166.5t-190.5 -62.5q-88 0 -144 45.5t-56 122.5z" />
    <glyph glyph-name="semicolon" unicode=";" horiz-adv-x="632" 
d="M180 352h436l-299 -549h-233zM238 807q0 103 79.5 166t190.5 63q89 0 144 -45t55 -123q0 -104 -78.5 -166.5t-190.5 -62.5q-88 0 -144 45.5t-56 122.5z" />
    <glyph glyph-name="less" unicode="&#x3c;" horiz-adv-x="1251" 
d="M1231 360l-45 -249l-924 471q-28 13 -42.5 37.5t-14.5 52.5q0 40 24 75t72 54l1090 471l-43 -250l-775 -332z" />
    <glyph glyph-name="equal" unicode="=" horiz-adv-x="1288" 
d="M1298 539l-41 -230h-1118l41 230h1118zM1393 1081l-37 -229h-1120l38 229h1119z" />
    <glyph glyph-name="greater" unicode="&#x3e;" horiz-adv-x="1251" 
d="M104 111l46 249l772 330l-656 332l43 250l926 -471q55 -28 55 -94q0 -37 -24.5 -71.5t-69.5 -53.5z" />
    <glyph glyph-name="question" unicode="?" horiz-adv-x="1521" 
d="M203 1014l338 356h581q266 0 393 -93t127 -261q0 -211 -149.5 -338t-441.5 -127h-205q-23 0 -33.5 -9.5t-15.5 -31.5h-351l7 43q26 134 113.5 202t256.5 68h236q87 0 125.5 26t38.5 87q0 42 -32.5 60t-98.5 18h-889zM344 143q0 104 80 168t190 64q88 0 143.5 -46
t55.5 -124q0 -103 -78.5 -165.5t-189.5 -62.5q-88 0 -144.5 45t-56.5 121z" />
    <glyph glyph-name="at" unicode="@" horiz-adv-x="1867" 
d="M1982 1370l-176 -1001h-874q-128 0 -203.5 75t-75.5 189q0 149 110 254.5t277 105.5h451l-76 -432h152l102 582h-553q-174 0 -320.5 -64.5t-234.5 -183.5t-88 -268q0 -176 133 -288t350 -112h615l135 -227h-791q-326 0 -523 157t-197 418q0 165 77.5 313t207.5 253.5
t307 167t370 61.5h825zM1040 561h138l45 256h-138q-71 0 -121.5 -43t-50.5 -104q0 -50 34.5 -79.5t92.5 -29.5z" />
    <glyph glyph-name="A" unicode="A" 
d="M2302 0h-1593l319 352h342q178 0 244 -4q-35 60 -105 199l-182 362l-803 -909h-501l1097 1239q139 154 301 154q163 0 244 -154z" />
    <glyph glyph-name="B" unicode="B" horiz-adv-x="1974" 
d="M1798 705q76 -23 123 -88t47 -162q0 -455 -635 -455h-1204l147 834h1213q59 0 97 25.5t38 82.5q0 37 -30 54.5t-74 17.5h-1213l352 356h908q224 0 349.5 -82.5t125.5 -238.5q0 -136 -71 -223.5t-173 -120.5zM1430 541h-781l-33 -189h781q151 0 151 111q0 78 -118 78z" />
    <glyph glyph-name="C" unicode="C" horiz-adv-x="1890" 
d="M973 352h960l-334 -352h-688q-210 0 -373 78.5t-251 216t-88 309.5q0 165 75.5 309t204.5 243.5t304 156.5t370 57h961l-336 -356h-688q-125 0 -231.5 -49t-170 -136.5t-63.5 -193.5q0 -127 96 -205t252 -78z" />
    <glyph glyph-name="D" unicode="D" horiz-adv-x="1957" 
d="M2005 788q0 -216 -129.5 -397.5t-350 -286t-478.5 -104.5h-918l152 854h424l-89 -502h492q198 0 332.5 104.5t134.5 266.5q0 127 -98 209t-252 82h-918l334 356h647q323 0 520 -161.5t197 -420.5z" />
    <glyph glyph-name="E" unicode="E" horiz-adv-x="1736" 
d="M616 352h1168l-336 -352h-1319l244 1370h1585l-338 -356h-887l-28 -164h1083l-295 -311h-844z" />
    <glyph glyph-name="F" unicode="F" horiz-adv-x="1679" 
d="M373 1370h1534l-336 -356h-838l-31 -178h1033l-316 -334h-776l-88 -502h-426z" />
    <glyph glyph-name="G" unicode="G" horiz-adv-x="1966" 
d="M817 551l309 305h877l-152 -856h-940q-210 0 -373 78.5t-251 216t-88 309.5q0 165 75.5 309t204.5 243.5t304 156.5t370 57h981l-338 -356h-706q-125 0 -232 -49t-171 -137t-64 -195q0 -127 96 -204t254 -77h520l35 199h-711z" />
    <glyph glyph-name="H" unicode="H" horiz-adv-x="1923" 
d="M2036 1370l-244 -1370h-422l94 528h-817l-92 -528h-426l244 1370h424l-88 -485h817l86 485h424z" />
    <glyph glyph-name="I" unicode="I" horiz-adv-x="694" 
d="M801 1370l-242 -1370h-424l244 1370h422z" />
    <glyph glyph-name="J" unicode="J" horiz-adv-x="1499" 
d="M360 352h236q164 0 262 27.5t148.5 85t68.5 158.5l133 747h424l-133 -747q-108 -623 -964 -623h-512z" />
    <glyph glyph-name="K" unicode="K" horiz-adv-x="1867" 
d="M1370 453l488 -453h-641l-351 360q-160 163 -213 230l-28 -197l-70 -393h-426l244 1370h424l-56 -317q-9 -45 -27 -126t-24 -114q127 102 291 223l455 334h614l-592 -393q-307 -201 -399 -252q128 -99 311 -272z" />
    <glyph glyph-name="L" unicode="L" horiz-adv-x="1626" 
d="M614 352h1063l-338 -352h-1210l244 1370h422z" />
    <glyph glyph-name="M" unicode="M" horiz-adv-x="2578" 
d="M1077 1247l150 -387q86 -223 149 -409q77 121 291 407l289 389q107 146 258 146q83 0 138 -48.5t65 -140.5l135 -1204h-422l-47 477q-23 254 -25 377q-85 -133 -260 -379l-244 -344q-67 -94 -126 -124t-144 -30t-134 30t-83 124l-123 346q-76 210 -125 377
q-64 -155 -160 -377l-213 -477h-415l565 1204q44 92 117.5 140.5t156.5 48.5q150 0 207 -146z" />
    <glyph glyph-name="N" unicode="N" horiz-adv-x="1871" 
d="M1513 -23q-46 0 -81 15.5t-76 58.5l-707 754l-141 -805h-385l199 1137q22 129 98.5 192.5t179.5 63.5q91 0 158 -74l706 -754l144 805h385l-203 -1134q-23 -129 -100 -194t-177 -65z" />
    <glyph glyph-name="O" unicode="O" horiz-adv-x="2174" 
d="M1333 1393q447 0 669 -142t222 -438q0 -422 -282.5 -629t-858.5 -207q-447 0 -668.5 143t-221.5 439q0 422 282 628t858 206zM1145 334q106 0 186.5 4t148 15t114.5 26.5t84 41.5t59 57t36 76.5t19.5 96t5.5 119.5q0 66 -20 112.5t-57.5 76.5t-104 47t-147.5 23.5
t-199 6.5q-142 0 -240 -7.5t-173.5 -28t-119.5 -50t-72 -81.5t-37.5 -114t-9.5 -155q0 -66 20 -112.5t58 -76.5t104.5 -47t147 -23.5t197.5 -6.5z" />
    <glyph glyph-name="P" unicode="P" horiz-adv-x="2023" 
d="M2097 930q0 -258 -210 -419t-562 -161h-717l-61 -350h-422l123 700h1179q109 0 173.5 51t64.5 132q0 61 -47 96t-135 35h-1180l344 356h860q280 0 435 -119.5t155 -320.5z" />
    <glyph glyph-name="Q" unicode="Q" horiz-adv-x="2174" 
d="M1501 588l613 -588h-1201q-211 0 -371.5 65t-253.5 197t-93 316q0 410 281.5 612.5t856.5 202.5q447 0 669 -142t222 -438q0 -212 -113 -356h-454q141 97 141 313q0 66 -20 112.5t-57.5 76.5t-104 47t-147.5 23.5t-199 6.5q-142 0 -240 -7.5t-173 -27.5t-118.5 -49
t-71 -79t-37 -110t-9.5 -149q0 -142 89.5 -202t264.5 -60h90q91 0 164 -6q-70 51 -129 107l-152 135h553z" />
    <glyph glyph-name="R" unicode="R" horiz-adv-x="2095" 
d="M1866 266l207 -266h-568l-241 362h-652l-63 -362h-424l123 700h1192q110 0 187 49t77 130q0 67 -54.5 101t-154.5 34h-1192l340 356h881q92 0 176 -11.5t168 -41t145 -75t99 -119.5t38 -169q0 -187 -122.5 -328.5t-319.5 -179.5q54 -48 158 -180z" />
    <glyph glyph-name="S" unicode="S" horiz-adv-x="1972" 
d="M799 823h745q223 0 339 -79t116 -232q0 -115 -37.5 -206t-116 -161t-210.5 -107.5t-310 -37.5h-1276l334 352h1038q86 0 125 28.5t39 88.5q0 82 -129 82h-747q-226 0 -338.5 87.5t-112.5 242.5q0 107 38 194.5t116.5 154.5t209.5 103.5t306 36.5h1190l-336 -356h-951
q-87 0 -125 -26t-38 -87q0 -41 32 -59.5t99 -18.5z" />
    <glyph glyph-name="T" unicode="T" horiz-adv-x="1830" 
d="M518 1370h1557l-340 -356h-488l-180 -1014h-424l178 1014h-643z" />
    <glyph glyph-name="U" unicode="U" horiz-adv-x="2019" 
d="M2150 1370l-137 -772q-111 -621 -962 -621q-437 0 -642.5 121.5t-205.5 370.5q0 61 12 129l137 772h424l-139 -772q-6 -44 -6 -76q0 -74 42.5 -114.5t146 -59t292.5 -18.5q164 0 262 27.5t146.5 84.5t66.5 156l137 772h426z" />
    <glyph glyph-name="V" unicode="V" 
d="M266 1370h518l457 -909l803 909h502l-1098 -1239q-139 -154 -301 -154q-163 0 -244 154z" />
    <glyph glyph-name="W" unicode="W" horiz-adv-x="2580" 
d="M1745 123l-152 387q-98 245 -147 412q-79 -127 -291 -410l-289 -389q-105 -146 -258 -146q-83 0 -139.5 48.5t-65.5 140.5l-133 1204h422l45 -477q25 -320 27 -377q143 220 258 379l246 344q68 94 126 124t142 30q87 0 135.5 -30t81.5 -124l123 -346q80 -228 127 -377
q54 152 158 377l215 477h415l-569 -1204q-43 -93 -114.5 -141t-155.5 -48q-150 0 -207 146z" />
    <glyph glyph-name="X" unicode="X" horiz-adv-x="2129" 
d="M1767 1370h549l-501 -395q-247 -192 -351 -266q35 -28 277 -297l366 -412h-598l-387 453l-561 -453h-526l518 412q258 204 369 280q-60 52 -269 285l-348 393h586l360 -426z" />
    <glyph glyph-name="Y" unicode="Y" horiz-adv-x="2105" 
d="M1800 1370h533l-977 -917l-78 -453h-426l80 455l-674 915h545l262 -381q127 -177 145 -215q111 117 211 217z" />
    <glyph glyph-name="Z" unicode="Z" horiz-adv-x="1841" 
d="M1886 352l-317 -352h-1299q-73 0 -121.5 39t-48.5 106q0 108 127 197l568 393q334 231 428 287q-101 -8 -473 -8h-549l334 356h1263q75 0 122.5 -38.5t47.5 -106.5q0 -111 -125 -195l-577 -401q-299 -208 -422 -285q136 8 547 8h495z" />
    <glyph glyph-name="bracketleft" unicode="[" horiz-adv-x="651" 
d="M842 1624l-45 -248h-146l-245 -1394h145l-43 -246h-391l334 1888h391z" />
    <glyph glyph-name="backslash" unicode="\" horiz-adv-x="966" 
d="M256 1446h248l450 -1524h-266z" />
    <glyph glyph-name="bracketright" unicode="]" horiz-adv-x="653" 
d="M776 1624l-334 -1888h-391l41 246h146l247 1394h-145l43 248h393z" />
    <glyph glyph-name="asciicircum" unicode="^" horiz-adv-x="1173" 
d="M993 1370l193 -764h-277l-121 531l-305 -531h-284l463 764h331z" />
    <glyph glyph-name="underscore" unicode="_" horiz-adv-x="1380" 
d="M1374 -86l-33 -184h-1390l33 184h1390z" />
    <glyph glyph-name="grave" unicode="`" horiz-adv-x="804" 
d="M936 1634l-29 -170l-598 80l41 232z" />
    <glyph glyph-name="a" unicode="a" 
d="M2302 0h-1593l319 352h342q178 0 244 -4q-35 60 -105 199l-182 362l-803 -909h-501l1097 1239q139 154 301 154q163 0 244 -154z" />
    <glyph glyph-name="b" unicode="b" horiz-adv-x="1974" 
d="M1798 705q76 -23 123 -88t47 -162q0 -455 -635 -455h-1204l147 834h1213q59 0 97 25.5t38 82.5q0 37 -30 54.5t-74 17.5h-1213l352 356h908q224 0 349.5 -82.5t125.5 -238.5q0 -136 -71 -223.5t-173 -120.5zM1430 541h-781l-33 -189h781q151 0 151 111q0 78 -118 78z" />
    <glyph glyph-name="c" unicode="c" horiz-adv-x="1890" 
d="M973 352h960l-334 -352h-688q-210 0 -373 78.5t-251 216t-88 309.5q0 165 75.5 309t204.5 243.5t304 156.5t370 57h961l-336 -356h-688q-125 0 -231.5 -49t-170 -136.5t-63.5 -193.5q0 -127 96 -205t252 -78z" />
    <glyph glyph-name="d" unicode="d" horiz-adv-x="1957" 
d="M2005 788q0 -216 -129.5 -397.5t-350 -286t-478.5 -104.5h-918l152 854h424l-89 -502h492q198 0 332.5 104.5t134.5 266.5q0 127 -98 209t-252 82h-918l334 356h647q323 0 520 -161.5t197 -420.5z" />
    <glyph glyph-name="e" unicode="e" horiz-adv-x="1736" 
d="M616 352h1168l-336 -352h-1319l244 1370h1585l-338 -356h-887l-28 -164h1083l-295 -311h-844z" />
    <glyph glyph-name="f" unicode="f" horiz-adv-x="1679" 
d="M373 1370h1534l-336 -356h-838l-31 -178h1033l-316 -334h-776l-88 -502h-426z" />
    <glyph glyph-name="g" unicode="g" horiz-adv-x="1966" 
d="M817 551l309 305h877l-152 -856h-940q-210 0 -373 78.5t-251 216t-88 309.5q0 165 75.5 309t204.5 243.5t304 156.5t370 57h981l-338 -356h-706q-125 0 -232 -49t-171 -137t-64 -195q0 -127 96 -204t254 -77h520l35 199h-711z" />
    <glyph glyph-name="h" unicode="h" horiz-adv-x="1923" 
d="M2036 1370l-244 -1370h-422l94 528h-817l-92 -528h-426l244 1370h424l-88 -485h817l86 485h424z" />
    <glyph glyph-name="i" unicode="i" horiz-adv-x="694" 
d="M801 1370l-242 -1370h-424l244 1370h422z" />
    <glyph glyph-name="j" unicode="j" horiz-adv-x="1499" 
d="M360 352h236q164 0 262 27.5t148.5 85t68.5 158.5l133 747h424l-133 -747q-108 -623 -964 -623h-512z" />
    <glyph glyph-name="k" unicode="k" horiz-adv-x="1867" 
d="M1370 453l488 -453h-641l-351 360q-160 163 -213 230l-28 -197l-70 -393h-426l244 1370h424l-56 -317q-9 -45 -27 -126t-24 -114q127 102 291 223l455 334h614l-592 -393q-307 -201 -399 -252q128 -99 311 -272z" />
    <glyph glyph-name="l" unicode="l" horiz-adv-x="1626" 
d="M614 352h1063l-338 -352h-1210l244 1370h422z" />
    <glyph glyph-name="m" unicode="m" horiz-adv-x="2578" 
d="M1077 1247l150 -387q86 -223 149 -409q77 121 291 407l289 389q107 146 258 146q83 0 138 -48.5t65 -140.5l135 -1204h-422l-47 477q-23 254 -25 377q-85 -133 -260 -379l-244 -344q-67 -94 -126 -124t-144 -30t-134 30t-83 124l-123 346q-76 210 -125 377
q-64 -155 -160 -377l-213 -477h-415l565 1204q44 92 117.5 140.5t156.5 48.5q150 0 207 -146z" />
    <glyph glyph-name="n" unicode="n" horiz-adv-x="1871" 
d="M1513 -23q-46 0 -81 15.5t-76 58.5l-707 754l-141 -805h-385l199 1137q22 129 98.5 192.5t179.5 63.5q91 0 158 -74l706 -754l144 805h385l-203 -1134q-23 -129 -100 -194t-177 -65z" />
    <glyph glyph-name="o" unicode="o" horiz-adv-x="2174" 
d="M1333 1393q447 0 669 -142t222 -438q0 -422 -282.5 -629t-858.5 -207q-447 0 -668.5 143t-221.5 439q0 422 282 628t858 206zM1145 334q106 0 186.5 4t148 15t114.5 26.5t84 41.5t59 57t36 76.5t19.5 96t5.5 119.5q0 66 -20 112.5t-57.5 76.5t-104 47t-147.5 23.5
t-199 6.5q-142 0 -240 -7.5t-173.5 -28t-119.5 -50t-72 -81.5t-37.5 -114t-9.5 -155q0 -66 20 -112.5t58 -76.5t104.5 -47t147 -23.5t197.5 -6.5z" />
    <glyph glyph-name="p" unicode="p" horiz-adv-x="2023" 
d="M2097 930q0 -258 -210 -419t-562 -161h-717l-61 -350h-422l123 700h1179q109 0 173.5 51t64.5 132q0 61 -47 96t-135 35h-1180l344 356h860q280 0 435 -119.5t155 -320.5z" />
    <glyph glyph-name="q" unicode="q" horiz-adv-x="2174" 
d="M1501 588l613 -588h-1201q-211 0 -371.5 65t-253.5 197t-93 316q0 410 281.5 612.5t856.5 202.5q447 0 669 -142t222 -438q0 -212 -113 -356h-454q141 97 141 313q0 66 -20 112.5t-57.5 76.5t-104 47t-147.5 23.5t-199 6.5q-142 0 -240 -7.5t-173 -27.5t-118.5 -49
t-71 -79t-37 -110t-9.5 -149q0 -142 89.5 -202t264.5 -60h90q91 0 164 -6q-70 51 -129 107l-152 135h553z" />
    <glyph glyph-name="r" unicode="r" horiz-adv-x="2095" 
d="M1866 266l207 -266h-568l-241 362h-652l-63 -362h-424l123 700h1192q110 0 187 49t77 130q0 67 -54.5 101t-154.5 34h-1192l340 356h881q92 0 176 -11.5t168 -41t145 -75t99 -119.5t38 -169q0 -187 -122.5 -328.5t-319.5 -179.5q54 -48 158 -180z" />
    <glyph glyph-name="s" unicode="s" horiz-adv-x="1972" 
d="M799 823h745q223 0 339 -79t116 -232q0 -115 -37.5 -206t-116 -161t-210.5 -107.5t-310 -37.5h-1276l334 352h1038q86 0 125 28.5t39 88.5q0 82 -129 82h-747q-226 0 -338.5 87.5t-112.5 242.5q0 107 38 194.5t116.5 154.5t209.5 103.5t306 36.5h1190l-336 -356h-951
q-87 0 -125 -26t-38 -87q0 -41 32 -59.5t99 -18.5z" />
    <glyph glyph-name="t" unicode="t" horiz-adv-x="1830" 
d="M518 1370h1557l-340 -356h-488l-180 -1014h-424l178 1014h-643z" />
    <glyph glyph-name="u" unicode="u" horiz-adv-x="2019" 
d="M2150 1370l-137 -772q-111 -621 -962 -621q-437 0 -642.5 121.5t-205.5 370.5q0 61 12 129l137 772h424l-139 -772q-6 -44 -6 -76q0 -74 42.5 -114.5t146 -59t292.5 -18.5q164 0 262 27.5t146.5 84.5t66.5 156l137 772h426z" />
    <glyph glyph-name="v" unicode="v" 
d="M266 1370h518l457 -909l803 909h502l-1098 -1239q-139 -154 -301 -154q-163 0 -244 154z" />
    <glyph glyph-name="w" unicode="w" horiz-adv-x="2580" 
d="M1745 123l-152 387q-98 245 -147 412q-79 -127 -291 -410l-289 -389q-105 -146 -258 -146q-83 0 -139.5 48.5t-65.5 140.5l-133 1204h422l45 -477q25 -320 27 -377q143 220 258 379l246 344q68 94 126 124t142 30q87 0 135.5 -30t81.5 -124l123 -346q80 -228 127 -377
q54 152 158 377l215 477h415l-569 -1204q-43 -93 -114.5 -141t-155.5 -48q-150 0 -207 146z" />
    <glyph glyph-name="x" unicode="x" horiz-adv-x="2129" 
d="M1767 1370h549l-501 -395q-247 -192 -351 -266q35 -28 277 -297l366 -412h-598l-387 453l-561 -453h-526l518 412q258 204 369 280q-60 52 -269 285l-348 393h586l360 -426z" />
    <glyph glyph-name="y" unicode="y" horiz-adv-x="2105" 
d="M1800 1370h533l-977 -917l-78 -453h-426l80 455l-674 915h545l262 -381q127 -177 145 -215q111 117 211 217z" />
    <glyph glyph-name="z" unicode="z" horiz-adv-x="1841" 
d="M1886 352l-317 -352h-1299q-73 0 -121.5 39t-48.5 106q0 108 127 197l568 393q334 231 428 287q-101 -8 -473 -8h-549l334 356h1263q75 0 122.5 -38.5t47.5 -106.5q0 -111 -125 -195l-577 -401q-299 -208 -422 -285q136 8 547 8h495z" />
    <glyph glyph-name="braceleft" unicode="{" horiz-adv-x="739" 
d="M926 1624l-41 -248q-124 0 -133 -45l-82 -457q-27 -153 -150 -200q86 -30 86 -144q0 -27 -6 -57l-78 -446q0 -45 115 -45l-41 -246h-139q-103 0 -151 47.5t-48 142.5q0 31 8 62l88 504q0 2 1 7t1 7q0 56 -112 59l39 217q126 3 135 72l92 516q44 254 278 254h138z" />
    <glyph glyph-name="bar" unicode="|" horiz-adv-x="612" 
d="M692 1546l-311 -1749h-225l309 1749h227z" />
    <glyph glyph-name="braceright" unicode="}" horiz-adv-x="739" 
d="M709 1370l-91 -516q0 -2 -1 -5t-1 -5q0 -59 115 -62l-39 -217q-128 -3 -137 -73l-90 -504q-23 -124 -95 -188t-182 -64h-137l41 246q124 0 133 45l80 446q27 162 150 201q-86 38 -86 141q0 25 6 59l80 457q0 45 -115 45l41 248h139q197 0 197 -178q0 -36 -8 -76z" />
    <glyph glyph-name="asciitilde" unicode="~" horiz-adv-x="1161" 
d="M862 453q-51 0 -109.5 23.5t-102 52t-101 52t-107.5 23.5q-128 0 -282 -168l57 336q155 135 307 135q49 0 105.5 -23.5t100.5 -51t103.5 -51t112.5 -23.5q130 0 283 164l-60 -336q-155 -133 -307 -133z" />
    <glyph glyph-name="nbspace" unicode="&#xa0;" horiz-adv-x="784" 
 />
    <glyph glyph-name="exclamdown" unicode="&#xa1;" horiz-adv-x="665" 
d="M553 0h-424l82 457l117 403h331l-24 -403zM782 1227q0 -104 -80 -168t-190 -64q-88 0 -143.5 46t-55.5 124q0 103 79 165.5t190 62.5q88 0 144 -44.5t56 -121.5z" />
    <glyph glyph-name="cent" unicode="&#xa2;" horiz-adv-x="1349" 
d="M1096 1370l-33 -182h430l-238 -252h-237l-82 -465h430l-236 -248h-239l-39 -223h-168l39 223q-223 0 -362.5 120.5t-139.5 305.5q0 154 91 278.5t244.5 192.5t336.5 68l33 182h170zM768 471l82 465q-135 0 -230.5 -76t-95.5 -190q0 -89 67.5 -144t176.5 -55z" />
    <glyph glyph-name="sterling" unicode="&#xa3;" horiz-adv-x="1665" 
d="M352 825h209l23 119q37 202 200.5 314t466.5 112h639l-338 -356h-397q-76 0 -114 -21t-48 -73l-16 -95h444l-254 -264h-237l-37 -209h819l-338 -352h-1311l336 352h80l37 209h-418z" />
    <glyph glyph-name="yen" unicode="&#xa5;" horiz-adv-x="2105" 
d="M1898 354l-40 -229h-560l-20 -125h-426l20 125h-542l41 229h542l19 101l-23 28h-516l41 230h307l-485 657h539l262 -381q11 -16 46 -65t63.5 -90.5t37.5 -59.5q53 58 211 217l377 379h539l-699 -657h330l-41 -230h-532l-33 -30l-17 -99h559z" />
    <glyph glyph-name="brokenbar" unicode="&#xa6;" horiz-adv-x="612" 
d="M381 -203h-225l116 674h228zM690 1546l-112 -635h-228l113 635h227z" />
    <glyph glyph-name="section" unicode="&#xa7;" horiz-adv-x="1972" 
d="M799 823h745q223 0 339 -79t116 -232q0 -230 -154 -346q58 -74 58 -176q0 -115 -37.5 -206t-116 -161t-210.5 -107.5t-310 -37.5h-1276l334 352h1038q86 0 125 28.5t39 88.5q0 82 -129 82h-748q-226 0 -338 87t-112 242q0 218 157 330q-61 72 -61 193q0 107 38 194.5
t116.5 154.5t209.5 103.5t306 36.5h1190l-336 -356h-951q-87 0 -125 -26t-38 -87q0 -41 32 -59.5t99 -18.5zM1585 469q0 82 -110 82h-748q-76 0 -116 -52t-40 -120q0 -78 111 -78h739q80 0 122 50.5t42 117.5z" />
    <glyph glyph-name="dieresis" unicode="&#xa8;" horiz-adv-x="880" 
d="M362 1632q0 66 52 108t123 42q58 0 93.5 -29.5t35.5 -81.5q0 -68 -50.5 -107.5t-123.5 -39.5q-59 0 -94.5 28.5t-35.5 79.5zM795 1632q0 66 51.5 108t122.5 42q58 0 93.5 -29.5t35.5 -81.5q0 -68 -50.5 -107.5t-123.5 -39.5q-57 0 -93 28.5t-36 79.5z" />
    <glyph glyph-name="copyright" unicode="&#xa9;" horiz-adv-x="1593" 
d="M918 467h239l-86 -111h-153q-153 0 -254 95.5t-101 238.5q0 144 100 233t255 89h239l-86 -113h-153q-96 0 -160 -60.5t-64 -156.5q0 -95 63 -155t161 -60zM215 686q0 116 36 224.5t101.5 195.5t152.5 152.5t195.5 101t223.5 35.5q193 0 356.5 -94.5t258.5 -258t95 -356.5
q0 -192 -95 -355.5t-258.5 -258.5t-356.5 -95q-115 0 -223.5 36t-195.5 101.5t-152.5 152.5t-101.5 195.5t-36 223.5zM301 684q0 -128 49 -244.5t132.5 -200t200 -133t245.5 -49.5q171 0 315.5 83.5t228.5 228t84 315.5q0 128 -49.5 244.5t-133.5 202t-200.5 136
t-244.5 50.5q-129 0 -245.5 -50.5t-200 -136t-132.5 -202t-49 -244.5z" />
    <glyph glyph-name="ordfeminine" unicode="&#xaa;" horiz-adv-x="1392" 
d="M1425 582h-876l176 194h188q99 0 136 -2q-31 46 -58 109l-102 198l-440 -499h-277l604 680q75 86 164 86t133 -86z" />
    <glyph glyph-name="guillemotleft" unicode="&#xab;" horiz-adv-x="933" 
d="M561 813l-260 -147l207 -152l-35 -190l-313 241l33 187l403 256zM993 813l-258 -147l205 -152l-35 -190l-311 241l33 187l401 256z" />
    <glyph glyph-name="registered" unicode="&#xae;" horiz-adv-x="1030" 
d="M686 1315q-152 0 -248 -99t-96 -225q0 -83 40.5 -156.5t121 -122t182.5 -48.5q150 0 258.5 95.5t108.5 231.5q0 123 -107.5 223.5t-259.5 100.5zM688 590q-183 0 -304.5 118.5t-121.5 282.5q0 80 32 153.5t87 128.5t135.5 87.5t171.5 32.5q185 0 308.5 -117t123.5 -285
q0 -106 -56.5 -198t-156.5 -147.5t-219 -55.5zM831 905l58 -59h-127l-70 80h-69v-80h-97v155h191q23 0 39 10t16 25q0 37 -55 37h-191l64 80h119q30 0 56 -5t51 -16.5t39.5 -34.5t14.5 -55q0 -37 -22 -63t-60 -33q10 -8 43 -41z" />
    <glyph glyph-name="macron" unicode="&#xaf;" horiz-adv-x="804" 
d="M1008 1706l-31 -170h-610l30 170h611z" />
    <glyph glyph-name="degree" unicode="&#xb0;" horiz-adv-x="808" 
d="M602 1227q-147 0 -147 -148q0 -147 147 -147q150 0 150 143q0 152 -150 152zM602 1393q316 0 316 -314q0 -313 -316 -313q-311 0 -311 313q0 314 311 314z" />
    <glyph glyph-name="plusminus" unicode="&#xb1;" horiz-adv-x="1288" 
d="M1202 -4l-41 -229h-1118l41 229h1118zM1348 811l-41 -229h-447l-80 -447h-227l80 447h-445l41 229h443l78 442h229l-78 -442h447z" />
    <glyph glyph-name="twosuperior" unicode="&#xb2;" horiz-adv-x="1015" 
d="M322 1229l165 178h402q262 0 262 -172q0 -107 -77.5 -172.5t-219.5 -65.5h-326q-73 0 -82 -51l-8 -47h662l-168 -176h-729l39 221q30 189 290 189h326q82 0 82 59q0 37 -66 37h-552z" />
    <glyph glyph-name="threesuperior" unicode="&#xb3;" horiz-adv-x="991" 
d="M164 723l164 176h469q73 0 73 55q0 37 -57 37h-412l140 148h303q27 0 46 13.5t19 41.5q0 35 -49 35h-573l166 178h428q114 0 176.5 -40t62.5 -116q0 -68 -38 -115t-83 -61q38 -12 60 -44t22 -77q0 -104 -77 -167.5t-238 -63.5h-602z" />
    <glyph glyph-name="acute" unicode="&#xb4;" horiz-adv-x="804" 
d="M1077 1776l-41 -232l-622 -80l28 170z" />
    <glyph glyph-name="periodcentered" unicode="&#xb7;" horiz-adv-x="632" 
d="M203 659q0 104 79 168t189 64q88 0 144.5 -46t56.5 -124q0 -103 -80 -165t-191 -62q-87 0 -142.5 44.5t-55.5 120.5z" />
    <glyph glyph-name="cedilla" unicode="&#xb8;" horiz-adv-x="610" 
d="M123 -63h315l-250 -459h-147z" />
    <glyph glyph-name="onesuperior" unicode="&#xb9;" horiz-adv-x="514" 
d="M256 1229l158 178h252l-121 -684h-213l90 506h-166z" />
    <glyph glyph-name="ordmasculine" unicode="&#xba;" horiz-adv-x="1312" 
d="M893 1348q247 0 369 -74.5t122 -231.5q0 -240 -164 -357.5t-464 -117.5q-246 0 -368 74.5t-122 230.5q0 242 161.5 359t465.5 117zM791 766q99 0 161 9.5t109 36t67.5 75.5t20.5 127q0 83 -64 110t-227 27q-100 0 -162.5 -9.5t-109.5 -36.5t-66.5 -76t-19.5 -128
q0 -81 65 -108t226 -27z" />
    <glyph glyph-name="guillemotright" unicode="&#xbb;" horiz-adv-x="933" 
d="M444 666l-206 147l34 195l312 -256l-33 -187l-399 -241l34 190zM877 666l-205 147l35 195l309 -256l-33 -187l-397 -241l35 190z" />
    <glyph glyph-name="onequarter" unicode="&#xbc;" horiz-adv-x="1896" 
d="M301 1229l158 178h252l-121 -684h-213l90 506h-166zM1524 1446h172l-1360 -1524h-186zM1421 61h-446q-40 0 -63 22t-23 54q0 58 59 101l565 401q47 37 105 37q42 0 69 -22.5t27 -69.5q0 -11 -4 -35l-55 -318h194l-153 -170h-72l-12 -79h-205zM1450 231l20 101q5 33 19 88
l-86 -64l-86 -61q-45 -32 -105 -68q58 4 117 4h121z" />
    <glyph glyph-name="onehalf" unicode="&#xbd;" horiz-adv-x="1945" 
d="M301 1229l158 178h252l-121 -684h-213l90 506h-166zM1505 1446h172l-1360 -1524h-186zM1110 487l166 179h401q262 0 262 -172q0 -107 -77.5 -172.5t-219.5 -65.5h-325q-73 0 -82 -51l-8 -47h661l-168 -176h-729l39 221q30 188 291 188h326q82 0 82 60q0 36 -66 36h-553z
" />
    <glyph glyph-name="threequarters" unicode="&#xbe;" horiz-adv-x="2164" 
d="M211 723l164 176h469q74 0 74 55q0 37 -58 37h-411l139 148h303q27 0 46 13.5t19 41.5q0 35 -49 35h-573l166 178h428q114 0 176.5 -40t62.5 -116q0 -68 -37.5 -115t-82.5 -61q37 -12 59 -44t22 -77q0 -104 -77 -167.5t-238 -63.5h-602zM1829 1446h172l-1360 -1524h-186z
M1690 61h-447q-40 0 -63 22t-23 54q0 58 60 101l565 401q47 37 104 37q42 0 69 -22.5t27 -69.5q0 -11 -4 -35l-55 -318h195l-154 -170h-72l-12 -79h-205zM1718 231l21 101q6 41 18 88l-86 -64l-86 -61q-50 -36 -104 -68q58 4 116 4h121z" />
    <glyph glyph-name="questiondown" unicode="&#xbf;" horiz-adv-x="1521" 
d="M1561 356l-338 -356h-582q-266 0 -393 93t-127 261q0 211 150 338t442 127h205q23 0 33.5 9.5t15.5 31.5h350l-6 -43q-26 -134 -114 -202t-257 -68h-235q-87 0 -125.5 -26t-38.5 -87q0 -42 32.5 -60t98.5 -18h889zM1419 1227q0 -104 -80 -168t-190 -64q-88 0 -143.5 46
t-55.5 124q0 103 79 165.5t190 62.5q88 0 144 -44.5t56 -121.5z" />
    <glyph glyph-name="Agrave" unicode="&#xc0;" 
d="M2302 0h-1593l319 352h342q178 0 244 -4q-35 60 -105 199l-182 362l-803 -909h-501l1097 1239q139 154 301 154q163 0 244 -154zM1696 1634l-29 -170l-598 80l41 232z" />
    <glyph glyph-name="Aacute" unicode="&#xc1;" 
d="M2302 0h-1593l319 352h342q178 0 244 -4q-35 60 -105 199l-182 362l-803 -909h-501l1097 1239q139 154 301 154q163 0 244 -154zM1837 1776l-41 -232l-622 -80l28 170z" />
    <glyph glyph-name="Acircumflex" unicode="&#xc2;" 
d="M2302 0h-1593l319 352h342q178 0 244 -4q-35 60 -105 199l-182 362l-803 -909h-501l1097 1239q139 154 301 154q163 0 244 -154zM1610 1776l137 -312h-203l-78 207h-20l-148 -207h-204l247 312h269z" />
    <glyph glyph-name="Atilde" unicode="&#xc3;" 
d="M2302 0h-1593l319 352h342q178 0 244 -4q-35 60 -105 199l-182 362l-803 -909h-501l1097 1239q139 154 301 154q163 0 244 -154zM1573 1499q-53 0 -141.5 42t-141.5 42q-92 0 -170 -74l31 170q68 62 168 62q53 0 140 -43t140 -43q92 0 170 74l-28 -168q-65 -62 -168 -62z
" />
    <glyph glyph-name="Adieresis" unicode="&#xc4;" 
d="M2302 0h-1593l319 352h342q178 0 244 -4q-35 60 -105 199l-182 362l-803 -909h-501l1097 1239q139 154 301 154q163 0 244 -154zM1083 1632q0 66 51.5 108t122.5 42q58 0 93.5 -29.5t35.5 -81.5q0 -68 -50.5 -107.5t-123.5 -39.5q-58 0 -93.5 28.5t-35.5 79.5zM1516 1632
q0 66 51.5 108t122.5 42q58 0 93.5 -29.5t35.5 -81.5q0 -68 -50.5 -107.5t-123.5 -39.5q-57 0 -93 28.5t-36 79.5z" />
    <glyph glyph-name="Aring" unicode="&#xc5;" 
d="M2302 0h-1593l319 352h342q178 0 244 -4q-35 60 -105 199l-182 362l-803 -909h-501l1097 1239q139 154 301 154q163 0 244 -154zM1573 1788h-195q-17 0 -29.5 -10t-15.5 -27q-18 -106 -18 -115q0 -26 33 -26h194q41 0 47 37l19 104q0 19 -7.5 28t-27.5 9zM1767 1763
l-22 -129q-30 -170 -242 -170h-168q-186 0 -186 131q0 11 4 39l25 129q14 88 71 130t170 42h166q187 0 187 -131q0 -6 -5 -41z" />
    <glyph glyph-name="AE" unicode="&#xc6;" horiz-adv-x="2953" 
d="M1399 1370h1775l-338 -356h-886l-29 -164h1085l-296 -311h-844l-33 -187h1167l-336 -352h-1316l178 1014h-109l-893 -1014h-501l1077 1214q137 156 299 156z" />
    <glyph glyph-name="Ccedilla" unicode="&#xc7;" horiz-adv-x="1890" 
d="M973 352h960l-334 -352h-688q-210 0 -373 78.5t-251 216t-88 309.5q0 165 75.5 309t204.5 243.5t304 156.5t370 57h961l-336 -356h-688q-125 0 -231.5 -49t-170 -136.5t-63.5 -193.5q0 -127 96 -205t252 -78zM901 -63h316l-250 -459h-148z" />
    <glyph glyph-name="Egrave" unicode="&#xc8;" horiz-adv-x="1736" 
d="M616 352h1168l-336 -352h-1319l244 1370h1585l-338 -356h-887l-28 -164h1083l-295 -311h-844zM1421 1634l-28 -170l-598 80l41 232z" />
    <glyph glyph-name="Eacute" unicode="&#xc9;" horiz-adv-x="1736" 
d="M616 352h1168l-336 -352h-1319l244 1370h1585l-338 -356h-887l-28 -164h1083l-295 -311h-844zM1524 1776l-41 -232l-623 -80l29 170z" />
    <glyph glyph-name="Ecircumflex" unicode="&#xca;" horiz-adv-x="1736" 
d="M616 352h1168l-336 -352h-1319l244 1370h1585l-338 -356h-887l-28 -164h1083l-295 -311h-844zM1335 1776l138 -312h-203l-78 207h-21l-147 -207h-205l248 312h268z" />
    <glyph glyph-name="Edieresis" unicode="&#xcb;" horiz-adv-x="1736" 
d="M616 352h1168l-336 -352h-1319l244 1370h1585l-338 -356h-887l-28 -164h1083l-295 -311h-844zM782 1632q0 66 51.5 108t122.5 42q58 0 93.5 -29.5t35.5 -81.5q0 -68 -50.5 -107.5t-123.5 -39.5q-58 0 -93.5 28.5t-35.5 79.5zM1214 1632q0 66 52 108t123 42
q58 0 93.5 -29.5t35.5 -81.5q0 -68 -51 -107.5t-124 -39.5q-57 0 -93 28.5t-36 79.5z" />
    <glyph glyph-name="Igrave" unicode="&#xcc;" horiz-adv-x="694" 
d="M801 1370l-242 -1370h-424l244 1370h422zM883 1634l-29 -170l-598 80l41 232z" />
    <glyph glyph-name="Iacute" unicode="&#xcd;" horiz-adv-x="694" 
d="M801 1370l-242 -1370h-424l244 1370h422zM1024 1776l-41 -232l-623 -80l29 170z" />
    <glyph glyph-name="Icircumflex" unicode="&#xce;" horiz-adv-x="694" 
d="M801 1370l-242 -1370h-424l244 1370h422zM795 1776l137 -312h-203l-78 207h-20l-148 -207h-204l247 312h269z" />
    <glyph glyph-name="Idieresis" unicode="&#xcf;" horiz-adv-x="694" 
d="M801 1370l-242 -1370h-424l244 1370h422zM270 1632q0 66 51.5 108t122.5 42q58 0 93.5 -29.5t35.5 -81.5q0 -68 -50.5 -107.5t-123.5 -39.5q-58 0 -93.5 28.5t-35.5 79.5zM702 1632q0 66 52 108t123 42q58 0 93.5 -29.5t35.5 -81.5q0 -68 -51 -107.5t-124 -39.5
q-57 0 -93 28.5t-36 79.5z" />
    <glyph glyph-name="Eth" unicode="&#xd0;" horiz-adv-x="2131" 
d="M391 850h981l-297 -311h-252l-32 -187h491q198 0 333.5 104.5t135.5 266.5q0 127 -98 209t-254 82h-916l332 356h649q323 0 520 -161.5t197 -420.5q0 -216 -130 -397.5t-350.5 -286t-479.5 -104.5h-916l94 539h-305z" />
    <glyph glyph-name="Ntilde" unicode="&#xd1;" horiz-adv-x="1871" 
d="M1513 -23q-46 0 -81 15.5t-76 58.5l-707 754l-141 -805h-385l199 1137q22 129 98.5 192.5t179.5 63.5q91 0 158 -74l706 -754l144 805h385l-203 -1134q-23 -129 -100 -194t-177 -65zM1339 1499q-53 0 -141 42t-141 42q-92 0 -170 -74l31 170q68 62 167 62q53 0 140.5 -43
t140.5 -43q92 0 170 74l-29 -168q-65 -62 -168 -62z" />
    <glyph glyph-name="Ograve" unicode="&#xd2;" horiz-adv-x="2174" 
d="M1333 1393q447 0 669 -142t222 -438q0 -422 -282.5 -629t-858.5 -207q-447 0 -668.5 143t-221.5 439q0 422 282 628t858 206zM1145 334q106 0 186.5 4t148 15t114.5 26.5t84 41.5t59 57t36 76.5t19.5 96t5.5 119.5q0 66 -20 112.5t-57.5 76.5t-104 47t-147.5 23.5
t-199 6.5q-142 0 -240 -7.5t-173.5 -28t-119.5 -50t-72 -81.5t-37.5 -114t-9.5 -155q0 -66 20 -112.5t58 -76.5t104.5 -47t147 -23.5t197.5 -6.5zM1620 1634l-29 -170l-598 80l41 232z" />
    <glyph glyph-name="Oacute" unicode="&#xd3;" horiz-adv-x="2174" 
d="M1333 1393q447 0 669 -142t222 -438q0 -422 -282.5 -629t-858.5 -207q-447 0 -668.5 143t-221.5 439q0 422 282 628t858 206zM1145 334q106 0 186.5 4t148 15t114.5 26.5t84 41.5t59 57t36 76.5t19.5 96t5.5 119.5q0 66 -20 112.5t-57.5 76.5t-104 47t-147.5 23.5
t-199 6.5q-142 0 -240 -7.5t-173.5 -28t-119.5 -50t-72 -81.5t-37.5 -114t-9.5 -155q0 -66 20 -112.5t58 -76.5t104.5 -47t147 -23.5t197.5 -6.5zM1761 1776l-41 -232l-622 -80l28 170z" />
    <glyph glyph-name="Ocircumflex" unicode="&#xd4;" horiz-adv-x="2174" 
d="M1333 1393q447 0 669 -142t222 -438q0 -422 -282.5 -629t-858.5 -207q-447 0 -668.5 143t-221.5 439q0 422 282 628t858 206zM1145 334q106 0 186.5 4t148 15t114.5 26.5t84 41.5t59 57t36 76.5t19.5 96t5.5 119.5q0 66 -20 112.5t-57.5 76.5t-104 47t-147.5 23.5
t-199 6.5q-142 0 -240 -7.5t-173.5 -28t-119.5 -50t-72 -81.5t-37.5 -114t-9.5 -155q0 -66 20 -112.5t58 -76.5t104.5 -47t147 -23.5t197.5 -6.5zM1534 1776l137 -312h-203l-77 207h-21l-147 -207h-205l248 312h268z" />
    <glyph glyph-name="Otilde" unicode="&#xd5;" horiz-adv-x="2174" 
d="M1333 1393q447 0 669 -142t222 -438q0 -422 -282.5 -629t-858.5 -207q-447 0 -668.5 143t-221.5 439q0 422 282 628t858 206zM1145 334q106 0 186.5 4t148 15t114.5 26.5t84 41.5t59 57t36 76.5t19.5 96t5.5 119.5q0 66 -20 112.5t-57.5 76.5t-104 47t-147.5 23.5
t-199 6.5q-142 0 -240 -7.5t-173.5 -28t-119.5 -50t-72 -81.5t-37.5 -114t-9.5 -155q0 -66 20 -112.5t58 -76.5t104.5 -47t147 -23.5t197.5 -6.5zM1497 1499q-53 0 -141.5 42t-141.5 42q-92 0 -170 -74l31 170q68 62 168 62q53 0 140.5 -43t140.5 -43q92 0 170 74l-29 -168
q-65 -62 -168 -62z" />
    <glyph glyph-name="Odieresis" unicode="&#xd6;" horiz-adv-x="2174" 
d="M1333 1393q447 0 669 -142t222 -438q0 -422 -282.5 -629t-858.5 -207q-447 0 -668.5 143t-221.5 439q0 422 282 628t858 206zM1145 334q106 0 186.5 4t148 15t114.5 26.5t84 41.5t59 57t36 76.5t19.5 96t5.5 119.5q0 66 -20 112.5t-57.5 76.5t-104 47t-147.5 23.5
t-199 6.5q-142 0 -240 -7.5t-173.5 -28t-119.5 -50t-72 -81.5t-37.5 -114t-9.5 -155q0 -66 20 -112.5t58 -76.5t104.5 -47t147 -23.5t197.5 -6.5zM1010 1632q0 66 51.5 108t122.5 42q58 0 93.5 -29.5t35.5 -81.5q0 -68 -50.5 -107.5t-123.5 -39.5q-58 0 -93.5 28.5
t-35.5 79.5zM1442 1632q0 66 51.5 108t122.5 42q58 0 93.5 -29.5t35.5 -81.5q0 -68 -50.5 -107.5t-123.5 -39.5q-57 0 -93 28.5t-36 79.5z" />
    <glyph glyph-name="multiply" unicode="&#xd7;" horiz-adv-x="1288" 
d="M1155 389l-192 -162l-258 316l-371 -314l-133 160l370 316l-258 315l191 160l258 -314l371 314l131 -162l-369 -313z" />
    <glyph glyph-name="Oslash" unicode="&#xd8;" horiz-adv-x="2174" 
d="M1333 1393q331 0 541 -74l180 147l90 -96l-139 -113q219 -136 219 -444q0 -422 -282.5 -629t-858.5 -207q-345 0 -544 76l-183 -149l-82 96l138 113q-219 134 -219 444q0 423 282 629.5t858 206.5zM1145 334q106 0 186.5 4t148 15t114.5 26.5t84 41.5t59 57t36 76.5
t19.5 96t5.5 119.5q0 164 -121 219l-784 -645q87 -10 252 -10zM618 600q0 -166 121 -219l779 645q-113 10 -248 10q-142 0 -240 -7.5t-173.5 -28t-119.5 -50t-72 -81.5t-37.5 -114t-9.5 -155z" />
    <glyph glyph-name="Ugrave" unicode="&#xd9;" horiz-adv-x="2019" 
d="M2150 1370l-137 -772q-111 -621 -962 -621q-437 0 -642.5 121.5t-205.5 370.5q0 61 12 129l137 772h424l-139 -772q-6 -44 -6 -76q0 -74 42.5 -114.5t146 -59t292.5 -18.5q164 0 262 27.5t146.5 84.5t66.5 156l137 772h426zM1542 1634l-29 -170l-598 80l41 232z" />
    <glyph glyph-name="Uacute" unicode="&#xda;" horiz-adv-x="2019" 
d="M2150 1370l-137 -772q-111 -621 -962 -621q-437 0 -642.5 121.5t-205.5 370.5q0 61 12 129l137 772h424l-139 -772q-6 -44 -6 -76q0 -74 42.5 -114.5t146 -59t292.5 -18.5q164 0 262 27.5t146.5 84.5t66.5 156l137 772h426zM1683 1776l-41 -232l-622 -80l29 170z" />
    <glyph glyph-name="Ucircumflex" unicode="&#xdb;" horiz-adv-x="2019" 
d="M2150 1370l-137 -772q-111 -621 -962 -621q-437 0 -642.5 121.5t-205.5 370.5q0 61 12 129l137 772h424l-139 -772q-6 -44 -6 -76q0 -74 42.5 -114.5t146 -59t292.5 -18.5q164 0 262 27.5t146.5 84.5t66.5 156l137 772h426zM1456 1776l137 -312h-202l-78 207h-21
l-147 -207h-205l248 312h268z" />
    <glyph glyph-name="Udieresis" unicode="&#xdc;" horiz-adv-x="2019" 
d="M2150 1370l-137 -772q-111 -621 -962 -621q-437 0 -642.5 121.5t-205.5 370.5q0 61 12 129l137 772h424l-139 -772q-6 -44 -6 -76q0 -74 42.5 -114.5t146 -59t292.5 -18.5q164 0 262 27.5t146.5 84.5t66.5 156l137 772h426zM932 1632q0 66 51.5 108t122.5 42
q58 0 93.5 -29.5t35.5 -81.5q0 -68 -50.5 -107.5t-123.5 -39.5q-58 0 -93.5 28.5t-35.5 79.5zM1364 1632q0 66 51.5 108t122.5 42q58 0 93.5 -29.5t35.5 -81.5q0 -68 -50.5 -107.5t-123.5 -39.5q-57 0 -93 28.5t-36 79.5z" />
    <glyph glyph-name="Yacute" unicode="&#xdd;" horiz-adv-x="2105" 
d="M1800 1370h533l-977 -917l-78 -453h-426l80 455l-674 915h545l262 -381q127 -177 145 -215q111 117 211 217zM1718 1776l-41 -232l-622 -80l28 170z" />
    <glyph glyph-name="Thorn" unicode="&#xde;" horiz-adv-x="1961" 
d="M129 0l244 1370h422l-35 -192h659q282 0 437 -117t155 -316q0 -257 -210 -421t-560 -164h-561l346 356h317q109 0 172.5 49t63.5 129q0 63 -47 99t-135 36h-699l-145 -829h-424z" />
    <glyph glyph-name="germandbls" unicode="&#xdf;" horiz-adv-x="3946" 
d="M799 823h745q223 0 339 -79t116 -232q0 -115 -37.5 -206t-116 -161t-210.5 -107.5t-310 -37.5h-1276l334 352h1038q86 0 125 28.5t39 88.5q0 82 -129 82h-747q-226 0 -338.5 87.5t-112.5 242.5q0 107 38 194.5t116.5 154.5t209.5 103.5t306 36.5h1190l-336 -356h-951
q-87 0 -125 -26t-38 -87q0 -41 32 -59.5t99 -18.5zM2771 823h745q223 0 339 -79t116 -232q0 -115 -37.5 -206t-116 -161t-210.5 -107.5t-310 -37.5h-1276l334 352h1039q86 0 124.5 28.5t38.5 88.5q0 82 -129 82h-747q-226 0 -338.5 87.5t-112.5 242.5q0 107 38 194.5
t116.5 154.5t209.5 103.5t306 36.5h1190l-336 -356h-950q-87 0 -125.5 -26t-38.5 -87q0 -41 32 -59.5t99 -18.5z" />
    <glyph glyph-name="agrave" unicode="&#xe0;" 
d="M2302 0h-1593l319 352h342q178 0 244 -4q-35 60 -105 199l-182 362l-803 -909h-501l1097 1239q139 154 301 154q163 0 244 -154zM1696 1634l-29 -170l-598 80l41 232z" />
    <glyph glyph-name="aacute" unicode="&#xe1;" 
d="M2302 0h-1593l319 352h342q178 0 244 -4q-35 60 -105 199l-182 362l-803 -909h-501l1097 1239q139 154 301 154q163 0 244 -154zM1837 1776l-41 -232l-622 -80l28 170z" />
    <glyph glyph-name="acircumflex" unicode="&#xe2;" 
d="M2302 0h-1593l319 352h342q178 0 244 -4q-35 60 -105 199l-182 362l-803 -909h-501l1097 1239q139 154 301 154q163 0 244 -154zM1610 1776l137 -312h-203l-78 207h-20l-148 -207h-204l247 312h269z" />
    <glyph glyph-name="atilde" unicode="&#xe3;" 
d="M2302 0h-1593l319 352h342q178 0 244 -4q-35 60 -105 199l-182 362l-803 -909h-501l1097 1239q139 154 301 154q163 0 244 -154zM1573 1499q-53 0 -141.5 42t-141.5 42q-92 0 -170 -74l31 170q68 62 168 62q53 0 140 -43t140 -43q92 0 170 74l-28 -168q-65 -62 -168 -62z
" />
    <glyph glyph-name="adieresis" unicode="&#xe4;" 
d="M2302 0h-1593l319 352h342q178 0 244 -4q-35 60 -105 199l-182 362l-803 -909h-501l1097 1239q139 154 301 154q163 0 244 -154zM1083 1632q0 66 51.5 108t122.5 42q58 0 93.5 -29.5t35.5 -81.5q0 -68 -50.5 -107.5t-123.5 -39.5q-58 0 -93.5 28.5t-35.5 79.5zM1516 1632
q0 66 51.5 108t122.5 42q58 0 93.5 -29.5t35.5 -81.5q0 -68 -50.5 -107.5t-123.5 -39.5q-57 0 -93 28.5t-36 79.5z" />
    <glyph glyph-name="aring" unicode="&#xe5;" 
d="M2302 0h-1593l319 352h342q178 0 244 -4q-35 60 -105 199l-182 362l-803 -909h-501l1097 1239q139 154 301 154q163 0 244 -154zM1573 1788h-195q-17 0 -29.5 -10t-15.5 -27q-18 -106 -18 -115q0 -26 33 -26h194q41 0 47 37l19 104q0 19 -7.5 28t-27.5 9zM1767 1763
l-22 -129q-30 -170 -242 -170h-168q-186 0 -186 131q0 11 4 39l25 129q14 88 71 130t170 42h166q187 0 187 -131q0 -6 -5 -41z" />
    <glyph glyph-name="ae" unicode="&#xe6;" horiz-adv-x="2953" 
d="M1399 1370h1775l-338 -356h-886l-29 -164h1085l-296 -311h-844l-33 -187h1167l-336 -352h-1316l178 1014h-109l-893 -1014h-501l1077 1214q137 156 299 156z" />
    <glyph glyph-name="ccedilla" unicode="&#xe7;" horiz-adv-x="1890" 
d="M973 352h960l-334 -352h-688q-210 0 -373 78.5t-251 216t-88 309.5q0 165 75.5 309t204.5 243.5t304 156.5t370 57h961l-336 -356h-688q-125 0 -231.5 -49t-170 -136.5t-63.5 -193.5q0 -127 96 -205t252 -78zM901 -63h316l-250 -459h-148z" />
    <glyph glyph-name="egrave" unicode="&#xe8;" horiz-adv-x="1736" 
d="M616 352h1168l-336 -352h-1319l244 1370h1585l-338 -356h-887l-28 -164h1083l-295 -311h-844zM1421 1634l-28 -170l-598 80l41 232z" />
    <glyph glyph-name="eacute" unicode="&#xe9;" horiz-adv-x="1736" 
d="M616 352h1168l-336 -352h-1319l244 1370h1585l-338 -356h-887l-28 -164h1083l-295 -311h-844zM1524 1776l-41 -232l-623 -80l29 170z" />
    <glyph glyph-name="ecircumflex" unicode="&#xea;" horiz-adv-x="1736" 
d="M616 352h1168l-336 -352h-1319l244 1370h1585l-338 -356h-887l-28 -164h1083l-295 -311h-844zM1335 1776l138 -312h-203l-78 207h-21l-147 -207h-205l248 312h268z" />
    <glyph glyph-name="edieresis" unicode="&#xeb;" horiz-adv-x="1736" 
d="M616 352h1168l-336 -352h-1319l244 1370h1585l-338 -356h-887l-28 -164h1083l-295 -311h-844zM782 1632q0 66 51.5 108t122.5 42q58 0 93.5 -29.5t35.5 -81.5q0 -68 -50.5 -107.5t-123.5 -39.5q-58 0 -93.5 28.5t-35.5 79.5zM1214 1632q0 66 52 108t123 42
q58 0 93.5 -29.5t35.5 -81.5q0 -68 -51 -107.5t-124 -39.5q-57 0 -93 28.5t-36 79.5z" />
    <glyph glyph-name="igrave" unicode="&#xec;" horiz-adv-x="694" 
d="M801 1370l-242 -1370h-424l244 1370h422zM883 1634l-29 -170l-598 80l41 232z" />
    <glyph glyph-name="iacute" unicode="&#xed;" horiz-adv-x="694" 
d="M801 1370l-242 -1370h-424l244 1370h422zM1024 1776l-41 -232l-623 -80l29 170z" />
    <glyph glyph-name="icircumflex" unicode="&#xee;" horiz-adv-x="694" 
d="M801 1370l-242 -1370h-424l244 1370h422zM795 1776l137 -312h-203l-78 207h-20l-148 -207h-204l247 312h269z" />
    <glyph glyph-name="idieresis" unicode="&#xef;" horiz-adv-x="694" 
d="M801 1370l-242 -1370h-424l244 1370h422zM270 1632q0 66 51.5 108t122.5 42q58 0 93.5 -29.5t35.5 -81.5q0 -68 -50.5 -107.5t-123.5 -39.5q-58 0 -93.5 28.5t-35.5 79.5zM702 1632q0 66 52 108t123 42q58 0 93.5 -29.5t35.5 -81.5q0 -68 -51 -107.5t-124 -39.5
q-57 0 -93 28.5t-36 79.5z" />
    <glyph glyph-name="eth" unicode="&#xf0;" horiz-adv-x="2131" 
d="M391 850h981l-297 -311h-252l-32 -187h491q198 0 333.5 104.5t135.5 266.5q0 127 -98 209t-254 82h-916l332 356h649q323 0 520 -161.5t197 -420.5q0 -216 -130 -397.5t-350.5 -286t-479.5 -104.5h-916l94 539h-305z" />
    <glyph glyph-name="ntilde" unicode="&#xf1;" horiz-adv-x="1871" 
d="M1513 -23q-46 0 -81 15.5t-76 58.5l-707 754l-141 -805h-385l199 1137q22 129 98.5 192.5t179.5 63.5q91 0 158 -74l706 -754l144 805h385l-203 -1134q-23 -129 -100 -194t-177 -65zM1339 1499q-53 0 -141 42t-141 42q-92 0 -170 -74l31 170q68 62 167 62q53 0 140.5 -43
t140.5 -43q92 0 170 74l-29 -168q-65 -62 -168 -62z" />
    <glyph glyph-name="ograve" unicode="&#xf2;" horiz-adv-x="2174" 
d="M1333 1393q447 0 669 -142t222 -438q0 -422 -282.5 -629t-858.5 -207q-447 0 -668.5 143t-221.5 439q0 422 282 628t858 206zM1145 334q106 0 186.5 4t148 15t114.5 26.5t84 41.5t59 57t36 76.5t19.5 96t5.5 119.5q0 66 -20 112.5t-57.5 76.5t-104 47t-147.5 23.5
t-199 6.5q-142 0 -240 -7.5t-173.5 -28t-119.5 -50t-72 -81.5t-37.5 -114t-9.5 -155q0 -66 20 -112.5t58 -76.5t104.5 -47t147 -23.5t197.5 -6.5zM1620 1634l-29 -170l-598 80l41 232z" />
    <glyph glyph-name="oacute" unicode="&#xf3;" horiz-adv-x="2174" 
d="M1333 1393q447 0 669 -142t222 -438q0 -422 -282.5 -629t-858.5 -207q-447 0 -668.5 143t-221.5 439q0 422 282 628t858 206zM1145 334q106 0 186.5 4t148 15t114.5 26.5t84 41.5t59 57t36 76.5t19.5 96t5.5 119.5q0 66 -20 112.5t-57.5 76.5t-104 47t-147.5 23.5
t-199 6.5q-142 0 -240 -7.5t-173.5 -28t-119.5 -50t-72 -81.5t-37.5 -114t-9.5 -155q0 -66 20 -112.5t58 -76.5t104.5 -47t147 -23.5t197.5 -6.5zM1761 1776l-41 -232l-622 -80l28 170z" />
    <glyph glyph-name="ocircumflex" unicode="&#xf4;" horiz-adv-x="2174" 
d="M1333 1393q447 0 669 -142t222 -438q0 -422 -282.5 -629t-858.5 -207q-447 0 -668.5 143t-221.5 439q0 422 282 628t858 206zM1145 334q106 0 186.5 4t148 15t114.5 26.5t84 41.5t59 57t36 76.5t19.5 96t5.5 119.5q0 66 -20 112.5t-57.5 76.5t-104 47t-147.5 23.5
t-199 6.5q-142 0 -240 -7.5t-173.5 -28t-119.5 -50t-72 -81.5t-37.5 -114t-9.5 -155q0 -66 20 -112.5t58 -76.5t104.5 -47t147 -23.5t197.5 -6.5zM1534 1776l137 -312h-203l-77 207h-21l-147 -207h-205l248 312h268z" />
    <glyph glyph-name="otilde" unicode="&#xf5;" horiz-adv-x="2174" 
d="M1333 1393q447 0 669 -142t222 -438q0 -422 -282.5 -629t-858.5 -207q-447 0 -668.5 143t-221.5 439q0 422 282 628t858 206zM1145 334q106 0 186.5 4t148 15t114.5 26.5t84 41.5t59 57t36 76.5t19.5 96t5.5 119.5q0 66 -20 112.5t-57.5 76.5t-104 47t-147.5 23.5
t-199 6.5q-142 0 -240 -7.5t-173.5 -28t-119.5 -50t-72 -81.5t-37.5 -114t-9.5 -155q0 -66 20 -112.5t58 -76.5t104.5 -47t147 -23.5t197.5 -6.5zM1497 1499q-53 0 -141.5 42t-141.5 42q-92 0 -170 -74l31 170q68 62 168 62q53 0 140.5 -43t140.5 -43q92 0 170 74l-29 -168
q-65 -62 -168 -62z" />
    <glyph glyph-name="odieresis" unicode="&#xf6;" horiz-adv-x="2174" 
d="M1333 1393q447 0 669 -142t222 -438q0 -422 -282.5 -629t-858.5 -207q-447 0 -668.5 143t-221.5 439q0 422 282 628t858 206zM1145 334q106 0 186.5 4t148 15t114.5 26.5t84 41.5t59 57t36 76.5t19.5 96t5.5 119.5q0 66 -20 112.5t-57.5 76.5t-104 47t-147.5 23.5
t-199 6.5q-142 0 -240 -7.5t-173.5 -28t-119.5 -50t-72 -81.5t-37.5 -114t-9.5 -155q0 -66 20 -112.5t58 -76.5t104.5 -47t147 -23.5t197.5 -6.5zM1010 1632q0 66 51.5 108t122.5 42q58 0 93.5 -29.5t35.5 -81.5q0 -68 -50.5 -107.5t-123.5 -39.5q-58 0 -93.5 28.5
t-35.5 79.5zM1442 1632q0 66 51.5 108t122.5 42q58 0 93.5 -29.5t35.5 -81.5q0 -68 -50.5 -107.5t-123.5 -39.5q-57 0 -93 28.5t-36 79.5z" />
    <glyph glyph-name="divide" unicode="&#xf7;" horiz-adv-x="1288" 
d="M1346 811l-41 -229h-1119l41 229h1119zM614 1141q0 104 79.5 167.5t189.5 63.5q88 0 144 -46t56 -124q0 -103 -79.5 -165t-190.5 -62q-87 0 -143 45t-56 121zM444 176q0 104 79.5 168t189.5 64q88 0 144 -46t56 -124q0 -103 -79.5 -165.5t-190.5 -62.5q-87 0 -143 45
t-56 121z" />
    <glyph glyph-name="oslash" unicode="&#xf8;" horiz-adv-x="2174" 
d="M1333 1393q331 0 541 -74l180 147l90 -96l-139 -113q219 -136 219 -444q0 -422 -282.5 -629t-858.5 -207q-345 0 -544 76l-183 -149l-82 96l138 113q-219 134 -219 444q0 423 282 629.5t858 206.5zM1145 334q106 0 186.5 4t148 15t114.5 26.5t84 41.5t59 57t36 76.5
t19.5 96t5.5 119.5q0 164 -121 219l-784 -645q87 -10 252 -10zM618 600q0 -166 121 -219l779 645q-113 10 -248 10q-142 0 -240 -7.5t-173.5 -28t-119.5 -50t-72 -81.5t-37.5 -114t-9.5 -155z" />
    <glyph glyph-name="ugrave" unicode="&#xf9;" horiz-adv-x="2019" 
d="M2150 1370l-137 -772q-111 -621 -962 -621q-437 0 -642.5 121.5t-205.5 370.5q0 61 12 129l137 772h424l-139 -772q-6 -44 -6 -76q0 -74 42.5 -114.5t146 -59t292.5 -18.5q164 0 262 27.5t146.5 84.5t66.5 156l137 772h426zM1542 1634l-29 -170l-598 80l41 232z" />
    <glyph glyph-name="uacute" unicode="&#xfa;" horiz-adv-x="2019" 
d="M2150 1370l-137 -772q-111 -621 -962 -621q-437 0 -642.5 121.5t-205.5 370.5q0 61 12 129l137 772h424l-139 -772q-6 -44 -6 -76q0 -74 42.5 -114.5t146 -59t292.5 -18.5q164 0 262 27.5t146.5 84.5t66.5 156l137 772h426zM1683 1776l-41 -232l-622 -80l29 170z" />
    <glyph glyph-name="ucircumflex" unicode="&#xfb;" horiz-adv-x="2019" 
d="M2150 1370l-137 -772q-111 -621 -962 -621q-437 0 -642.5 121.5t-205.5 370.5q0 61 12 129l137 772h424l-139 -772q-6 -44 -6 -76q0 -74 42.5 -114.5t146 -59t292.5 -18.5q164 0 262 27.5t146.5 84.5t66.5 156l137 772h426zM1456 1776l137 -312h-202l-78 207h-21
l-147 -207h-205l248 312h268z" />
    <glyph glyph-name="udieresis" unicode="&#xfc;" horiz-adv-x="2019" 
d="M2150 1370l-137 -772q-111 -621 -962 -621q-437 0 -642.5 121.5t-205.5 370.5q0 61 12 129l137 772h424l-139 -772q-6 -44 -6 -76q0 -74 42.5 -114.5t146 -59t292.5 -18.5q164 0 262 27.5t146.5 84.5t66.5 156l137 772h426zM932 1632q0 66 51.5 108t122.5 42
q58 0 93.5 -29.5t35.5 -81.5q0 -68 -50.5 -107.5t-123.5 -39.5q-58 0 -93.5 28.5t-35.5 79.5zM1364 1632q0 66 51.5 108t122.5 42q58 0 93.5 -29.5t35.5 -81.5q0 -68 -50.5 -107.5t-123.5 -39.5q-57 0 -93 28.5t-36 79.5z" />
    <glyph glyph-name="yacute" unicode="&#xfd;" horiz-adv-x="2105" 
d="M1800 1370h533l-977 -917l-78 -453h-426l80 455l-674 915h545l262 -381q127 -177 145 -215q111 117 211 217zM1718 1776l-41 -232l-622 -80l28 170z" />
    <glyph glyph-name="thorn" unicode="&#xfe;" horiz-adv-x="1961" 
d="M129 0l244 1370h422l-35 -192h659q282 0 437 -117t155 -316q0 -257 -210 -421t-560 -164h-561l346 356h317q109 0 172.5 49t63.5 129q0 63 -47 99t-135 36h-699l-145 -829h-424z" />
    <glyph glyph-name="ydieresis" unicode="&#xff;" horiz-adv-x="2105" 
d="M1800 1370h533l-977 -917l-78 -453h-426l80 455l-674 915h545l262 -381q127 -177 145 -215q111 117 211 217zM995 1632q0 66 51.5 108t122.5 42q58 0 93.5 -29.5t35.5 -81.5q0 -68 -50.5 -107.5t-123.5 -39.5q-58 0 -93.5 28.5t-35.5 79.5zM1427 1632q0 66 52 108t123 42
q58 0 93.5 -29.5t35.5 -81.5q0 -68 -51 -107.5t-124 -39.5q-57 0 -93 28.5t-36 79.5z" />
    <glyph glyph-name="Amacron" unicode="&#x100;" 
d="M2302 0h-1593l319 352h342q178 0 244 -4q-35 60 -105 199l-182 362l-803 -909h-501l1097 1239q139 154 301 154q163 0 244 -154zM1767 1706l-30 -170h-611l31 170h610z" />
    <glyph glyph-name="amacron" unicode="&#x101;" 
d="M2302 0h-1593l319 352h342q178 0 244 -4q-35 60 -105 199l-182 362l-803 -909h-501l1097 1239q139 154 301 154q163 0 244 -154zM1767 1706l-30 -170h-611l31 170h610z" />
    <glyph glyph-name="Abreve" unicode="&#x102;" 
d="M2302 0h-1593l319 352h342q178 0 244 -4q-35 60 -105 199l-182 362l-803 -909h-501l1097 1239q139 154 301 154q163 0 244 -154zM1597 1776h205q-6 -34 -21 -73.5t-42.5 -82t-62.5 -77t-85 -57t-106 -22.5h-127q-59 0 -102.5 24t-66.5 63.5t-33.5 81.5t-10.5 87
q0 24 4 56h203q-4 -32 -4 -54q0 -55 20 -94t68 -39h26q38 0 69 35.5t46 75.5t20 76z" />
    <glyph glyph-name="abreve" unicode="&#x103;" 
d="M2302 0h-1593l319 352h342q178 0 244 -4q-35 60 -105 199l-182 362l-803 -909h-501l1097 1239q139 154 301 154q163 0 244 -154zM1597 1776h205q-6 -34 -21 -73.5t-42.5 -82t-62.5 -77t-85 -57t-106 -22.5h-127q-59 0 -102.5 24t-66.5 63.5t-33.5 81.5t-10.5 87
q0 24 4 56h203q-4 -32 -4 -54q0 -55 20 -94t68 -39h26q38 0 69 35.5t46 75.5t20 76z" />
    <glyph glyph-name="Aogonek" unicode="&#x104;" 
d="M2259 -250l-47 -262h-213q-100 0 -157.5 43.5t-57.5 108.5q0 109 137 206l215 154h-1427l319 352h342q179 0 242 -4q-59 108 -105 199l-182 362l-801 -909h-501l1095 1239q139 154 301 154q163 0 244 -154l639 -1239l-256 -180q-30 -23 -27 -43q0 -11 10.5 -19t28.5 -8
h201z" />
    <glyph glyph-name="aogonek" unicode="&#x105;" 
d="M2259 -250l-47 -262h-213q-100 0 -157.5 43.5t-57.5 108.5q0 109 137 206l215 154h-1427l319 352h342q179 0 242 -4q-59 108 -105 199l-182 362l-801 -909h-501l1095 1239q139 154 301 154q163 0 244 -154l639 -1239l-256 -180q-30 -23 -27 -43q0 -11 10.5 -19t28.5 -8
h201z" />
    <glyph glyph-name="Cacute" unicode="&#x106;" horiz-adv-x="1890" 
d="M973 352h960l-334 -352h-688q-210 0 -373 78.5t-251 216t-88 309.5q0 165 75.5 309t204.5 243.5t304 156.5t370 57h961l-336 -356h-688q-125 0 -231.5 -49t-170 -136.5t-63.5 -193.5q0 -127 96 -205t252 -78zM1716 1776l-41 -232l-622 -80l28 170z" />
    <glyph glyph-name="cacute" unicode="&#x107;" horiz-adv-x="1890" 
d="M973 352h960l-334 -352h-688q-210 0 -373 78.5t-251 216t-88 309.5q0 165 75.5 309t204.5 243.5t304 156.5t370 57h961l-336 -356h-688q-125 0 -231.5 -49t-170 -136.5t-63.5 -193.5q0 -127 96 -205t252 -78zM1716 1776l-41 -232l-622 -80l28 170z" />
    <glyph glyph-name="Cdotaccent" unicode="&#x10a;" horiz-adv-x="1890" 
d="M973 352h960l-334 -352h-688q-210 0 -373 78.5t-251 216t-88 309.5q0 165 75.5 309t204.5 243.5t304 156.5t370 57h961l-336 -356h-688q-125 0 -231.5 -49t-170 -136.5t-63.5 -193.5q0 -127 96 -205t252 -78zM1198 1622q0 67 51 108.5t123 41.5q58 0 93.5 -29.5
t35.5 -81.5q0 -67 -51 -107.5t-123 -40.5q-58 0 -93.5 29t-35.5 80z" />
    <glyph glyph-name="cdotaccent" unicode="&#x10b;" horiz-adv-x="1890" 
d="M973 352h960l-334 -352h-688q-210 0 -373 78.5t-251 216t-88 309.5q0 165 75.5 309t204.5 243.5t304 156.5t370 57h961l-336 -356h-688q-125 0 -231.5 -49t-170 -136.5t-63.5 -193.5q0 -127 96 -205t252 -78zM1198 1622q0 67 51 108.5t123 41.5q58 0 93.5 -29.5
t35.5 -81.5q0 -67 -51 -107.5t-123 -40.5q-58 0 -93.5 29t-35.5 80z" />
    <glyph glyph-name="Ccaron" unicode="&#x10c;" horiz-adv-x="1890" 
d="M973 352h960l-334 -352h-688q-210 0 -373 78.5t-251 216t-88 309.5q0 165 75.5 309t204.5 243.5t304 156.5t370 57h961l-336 -356h-688q-125 0 -231.5 -49t-170 -136.5t-63.5 -193.5q0 -127 96 -205t252 -78zM1167 1464l-137 312h203l78 -207h18l150 207h204l-249 -312
h-267z" />
    <glyph glyph-name="ccaron" unicode="&#x10d;" horiz-adv-x="1890" 
d="M973 352h960l-334 -352h-688q-210 0 -373 78.5t-251 216t-88 309.5q0 165 75.5 309t204.5 243.5t304 156.5t370 57h961l-336 -356h-688q-125 0 -231.5 -49t-170 -136.5t-63.5 -193.5q0 -127 96 -205t252 -78zM1167 1464l-137 312h203l78 -207h18l150 207h204l-249 -312
h-267z" />
    <glyph glyph-name="Dcaron" unicode="&#x10e;" horiz-adv-x="1957" 
d="M2005 788q0 -216 -129.5 -397.5t-350 -286t-478.5 -104.5h-918l152 854h424l-89 -502h492q198 0 332.5 104.5t134.5 266.5q0 127 -98 209t-252 82h-918l334 356h647q323 0 520 -161.5t197 -420.5zM967 1464l-138 312h203l78 -207h18l150 207h205l-250 -312h-266z" />
    <glyph glyph-name="dcaron" unicode="&#x10f;" horiz-adv-x="1957" 
d="M2005 788q0 -216 -129.5 -397.5t-350 -286t-478.5 -104.5h-918l152 854h424l-89 -502h492q198 0 332.5 104.5t134.5 266.5q0 127 -98 209t-252 82h-918l334 356h647q323 0 520 -161.5t197 -420.5zM967 1464l-138 312h203l78 -207h18l150 207h205l-250 -312h-266z" />
    <glyph glyph-name="Dcroat" unicode="&#x110;" horiz-adv-x="2131" 
d="M391 850h981l-297 -311h-252l-32 -187h491q198 0 333.5 104.5t135.5 266.5q0 127 -98 209t-254 82h-916l332 356h649q323 0 520 -161.5t197 -420.5q0 -216 -130 -397.5t-350.5 -286t-479.5 -104.5h-916l94 539h-305z" />
    <glyph glyph-name="dcroat" unicode="&#x111;" horiz-adv-x="2131" 
d="M391 850h981l-297 -311h-252l-32 -187h491q198 0 333.5 104.5t135.5 266.5q0 127 -98 209t-254 82h-916l332 356h649q323 0 520 -161.5t197 -420.5q0 -216 -130 -397.5t-350.5 -286t-479.5 -104.5h-916l94 539h-305z" />
    <glyph glyph-name="Emacron" unicode="&#x112;" horiz-adv-x="1736" 
d="M616 352h1168l-336 -352h-1319l244 1370h1585l-338 -356h-887l-28 -164h1083l-295 -311h-844zM1473 1706l-31 -170h-611l31 170h611z" />
    <glyph glyph-name="emacron" unicode="&#x113;" horiz-adv-x="1736" 
d="M616 352h1168l-336 -352h-1319l244 1370h1585l-338 -356h-887l-28 -164h1083l-295 -311h-844zM1473 1706l-31 -170h-611l31 170h611z" />
    <glyph glyph-name="Edotaccent" unicode="&#x116;" horiz-adv-x="1736" 
d="M616 352h1168l-336 -352h-1319l244 1370h1585l-338 -356h-887l-28 -164h1083l-295 -311h-844zM1038 1622q0 67 51 108.5t123 41.5q58 0 93.5 -29.5t35.5 -81.5q0 -67 -51 -107.5t-123 -40.5q-58 0 -93.5 29t-35.5 80z" />
    <glyph glyph-name="edotaccent" unicode="&#x117;" horiz-adv-x="1736" 
d="M616 352h1168l-336 -352h-1319l244 1370h1585l-338 -356h-887l-28 -164h1083l-295 -311h-844zM1038 1622q0 67 51 108.5t123 41.5q58 0 93.5 -29.5t35.5 -81.5q0 -67 -51 -107.5t-123 -40.5q-58 0 -93.5 29t-35.5 80z" />
    <glyph glyph-name="Eogonek" unicode="&#x118;" horiz-adv-x="1736" 
d="M1483 -250l-47 -262h-187q-100 0 -157.5 43.5t-57.5 108.5q0 50 25.5 96.5t85.5 109.5l147 154h-1163l242 1370h1585l-336 -356h-887l-28 -164h1083l-295 -311h-844l-33 -187h1168l-512 -532q-2 -2 -5.5 -6t-5 -5.5t-3.5 -4.5t-3 -5.5t-2 -6t-1.5 -7t-0.5 -8.5
q0 -11 10.5 -19t28.5 -8h193z" />
    <glyph glyph-name="eogonek" unicode="&#x119;" horiz-adv-x="1736" 
d="M1483 -250l-47 -262h-187q-100 0 -157.5 43.5t-57.5 108.5q0 50 25.5 96.5t85.5 109.5l147 154h-1163l242 1370h1585l-336 -356h-887l-28 -164h1083l-295 -311h-844l-33 -187h1168l-512 -532q-2 -2 -5.5 -6t-5 -5.5t-3.5 -4.5t-3 -5.5t-2 -6t-1.5 -7t-0.5 -8.5
q0 -11 10.5 -19t28.5 -8h193z" />
    <glyph glyph-name="Ecaron" unicode="&#x11a;" horiz-adv-x="1736" 
d="M616 352h1168l-336 -352h-1319l244 1370h1585l-338 -356h-887l-28 -164h1083l-295 -311h-844zM1010 1464l-138 312h203l78 -207h18l150 207h205l-250 -312h-266z" />
    <glyph glyph-name="ecaron" unicode="&#x11b;" horiz-adv-x="1736" 
d="M616 352h1168l-336 -352h-1319l244 1370h1585l-338 -356h-887l-28 -164h1083l-295 -311h-844zM1010 1464l-138 312h203l78 -207h18l150 207h205l-250 -312h-266z" />
    <glyph glyph-name="Gbreve" unicode="&#x11e;" horiz-adv-x="1966" 
d="M817 551l309 305h877l-152 -856h-940q-210 0 -373 78.5t-251 216t-88 309.5q0 165 75.5 309t204.5 243.5t304 156.5t370 57h981l-338 -356h-706q-125 0 -232 -49t-171 -137t-64 -195q0 -127 96 -204t254 -77h520l35 199h-711zM1479 1776h204q-6 -34 -21 -73.5t-42.5 -82
t-62.5 -77t-85 -57t-106 -22.5h-127q-59 0 -102.5 24t-66.5 63.5t-33.5 81.5t-10.5 87q0 24 4 56h203q-4 -32 -4 -54q0 -55 20 -94t68 -39h26q38 0 69.5 35.5t46.5 75.5t20 76z" />
    <glyph glyph-name="gbreve" unicode="&#x11f;" horiz-adv-x="1966" 
d="M817 551l309 305h877l-152 -856h-940q-210 0 -373 78.5t-251 216t-88 309.5q0 165 75.5 309t204.5 243.5t304 156.5t370 57h981l-338 -356h-706q-125 0 -232 -49t-171 -137t-64 -195q0 -127 96 -204t254 -77h520l35 199h-711zM1479 1776h204q-6 -34 -21 -73.5t-42.5 -82
t-62.5 -77t-85 -57t-106 -22.5h-127q-59 0 -102.5 24t-66.5 63.5t-33.5 81.5t-10.5 87q0 24 4 56h203q-4 -32 -4 -54q0 -55 20 -94t68 -39h26q38 0 69.5 35.5t46.5 75.5t20 76z" />
    <glyph glyph-name="Gdotaccent" unicode="&#x120;" horiz-adv-x="1966" 
d="M817 551l309 305h877l-152 -856h-940q-210 0 -373 78.5t-251 216t-88 309.5q0 165 75.5 309t204.5 243.5t304 156.5t370 57h981l-338 -356h-706q-125 0 -232 -49t-171 -137t-64 -195q0 -127 96 -204t254 -77h520l35 199h-711zM1198 1622q0 67 51 108.5t123 41.5
q58 0 93.5 -29.5t35.5 -81.5q0 -67 -51 -107.5t-123 -40.5q-58 0 -93.5 29t-35.5 80z" />
    <glyph glyph-name="gdotaccent" unicode="&#x121;" horiz-adv-x="1966" 
d="M817 551l309 305h877l-152 -856h-940q-210 0 -373 78.5t-251 216t-88 309.5q0 165 75.5 309t204.5 243.5t304 156.5t370 57h981l-338 -356h-706q-125 0 -232 -49t-171 -137t-64 -195q0 -127 96 -204t254 -77h520l35 199h-711zM1198 1622q0 67 51 108.5t123 41.5
q58 0 93.5 -29.5t35.5 -81.5q0 -67 -51 -107.5t-123 -40.5q-58 0 -93.5 29t-35.5 80z" />
    <glyph glyph-name="Gcommaaccent" unicode="&#x122;" horiz-adv-x="1966" 
d="M817 551l309 305h877l-152 -856h-940q-210 0 -373 78.5t-251 216t-88 309.5q0 165 75.5 309t204.5 243.5t304 156.5t370 57h981l-338 -356h-706q-125 0 -232 -49t-171 -137t-64 -195q0 -127 96 -204t254 -77h520l35 199h-711zM948 -63h316l-248 -459h-148z" />
    <glyph glyph-name="gcommaaccent" unicode="&#x123;" horiz-adv-x="1966" 
d="M817 551l309 305h877l-152 -856h-940q-210 0 -373 78.5t-251 216t-88 309.5q0 165 75.5 309t204.5 243.5t304 156.5t370 57h981l-338 -356h-706q-125 0 -232 -49t-171 -137t-64 -195q0 -127 96 -204t254 -77h520l35 199h-711zM948 -63h316l-248 -459h-148z" />
    <glyph glyph-name="Hbar" unicode="&#x126;" horiz-adv-x="1923" 
d="M2034 1370l-242 -1370h-422l94 528h-817l-92 -528h-426l242 1370h424l-25 -149h815l25 149h424zM709 885h817l33 188h-818z" />
    <glyph glyph-name="hbar" unicode="&#x127;" horiz-adv-x="1923" 
d="M2034 1370l-242 -1370h-422l94 528h-817l-92 -528h-426l242 1370h424l-25 -149h815l25 149h424zM709 885h817l33 188h-818z" />
    <glyph glyph-name="uni012A" unicode="&#x12a;" horiz-adv-x="694" 
d="M801 1370l-242 -1370h-424l244 1370h422zM954 1706l-30 -170h-611l31 170h610z" />
    <glyph glyph-name="imacron" unicode="&#x12b;" horiz-adv-x="694" 
d="M801 1370l-242 -1370h-424l244 1370h422zM954 1706l-30 -170h-611l31 170h610z" />
    <glyph glyph-name="Ibreve" unicode="&#x12c;" horiz-adv-x="694" 
d="M801 1370l-242 -1370h-424l244 1370h422zM782 1776h205q-6 -34 -21 -73.5t-42.5 -82t-62.5 -77t-85 -57t-106 -22.5h-127q-59 0 -102.5 24t-66.5 63.5t-33.5 81.5t-10.5 87q0 24 4 56h203q-5 -40 -5 -54q0 -55 20.5 -94t68.5 -39h26q38 0 69 35.5t46 75.5t20 76z" />
    <glyph glyph-name="ibreve" unicode="&#x12d;" horiz-adv-x="694" 
d="M801 1370l-242 -1370h-424l244 1370h422zM782 1776h205q-6 -34 -21 -73.5t-42.5 -82t-62.5 -77t-85 -57t-106 -22.5h-127q-59 0 -102.5 24t-66.5 63.5t-33.5 81.5t-10.5 87q0 24 4 56h203q-5 -40 -5 -54q0 -55 20.5 -94t68.5 -39h26q38 0 69 35.5t46 75.5t20 76z" />
    <glyph glyph-name="Iogonek" unicode="&#x12e;" horiz-adv-x="694" 
d="M514 -250l-47 -262h-213q-100 0 -157.5 43.5t-57.5 108.5q0 109 137 206l215 154h-256l242 1370h422l-240 -1370l-256 -180q-32 -22 -29 -43q0 -11 10.5 -19t28.5 -8h201z" />
    <glyph glyph-name="iogonek" unicode="&#x12f;" horiz-adv-x="694" 
d="M514 -250l-47 -262h-213q-100 0 -157.5 43.5t-57.5 108.5q0 109 137 206l215 154h-256l242 1370h422l-240 -1370l-256 -180q-32 -22 -29 -43q0 -11 10.5 -19t28.5 -8h201z" />
    <glyph glyph-name="Idotaccent" unicode="&#x130;" horiz-adv-x="694" 
d="M801 1370l-242 -1370h-424l244 1370h422zM485 1622q0 67 51 108.5t123 41.5q58 0 93.5 -29.5t35.5 -81.5q0 -67 -51 -107.5t-123 -40.5q-58 0 -93.5 29t-35.5 80z" />
    <glyph glyph-name="dotlessi" unicode="&#x131;" horiz-adv-x="694" 
d="M801 1370l-242 -1370h-424l244 1370h422z" />
    <glyph glyph-name="IJ" unicode="&#x132;" horiz-adv-x="2193" 
d="M801 1370l-242 -1370h-424l244 1370h422zM1055 352h235q164 0 262 27.5t148.5 85t68.5 158.5l134 747h424l-134 -747q-108 -623 -964 -623h-512z" />
    <glyph glyph-name="ij" unicode="&#x133;" horiz-adv-x="2193" 
d="M801 1370l-242 -1370h-424l244 1370h422zM1055 352h235q164 0 262 27.5t148.5 85t68.5 158.5l134 747h424l-134 -747q-108 -623 -964 -623h-512z" />
    <glyph glyph-name="Kcommaaccent" unicode="&#x136;" horiz-adv-x="1867" 
d="M1370 453l488 -453h-641l-351 360q-160 163 -213 230l-28 -197l-70 -393h-426l244 1370h424l-56 -317q-9 -45 -27 -126t-24 -114q127 102 291 223l455 334h614l-592 -393q-307 -201 -399 -252q128 -99 311 -272zM705 -63h315l-248 -459h-147z" />
    <glyph glyph-name="kcommaaccent" unicode="&#x137;" horiz-adv-x="1867" 
d="M1370 453l488 -453h-641l-351 360q-160 163 -213 230l-28 -197l-70 -393h-426l244 1370h424l-56 -317q-9 -45 -27 -126t-24 -114q127 102 291 223l455 334h614l-592 -393q-307 -201 -399 -252q128 -99 311 -272zM705 -63h315l-248 -459h-147z" />
    <glyph glyph-name="Lacute" unicode="&#x139;" horiz-adv-x="1626" 
d="M614 352h1063l-338 -352h-1210l244 1370h422zM1059 1776l-41 -232l-623 -80l29 170z" />
    <glyph glyph-name="lacute" unicode="&#x13a;" horiz-adv-x="1626" 
d="M614 352h1063l-338 -352h-1210l244 1370h422zM1059 1776l-41 -232l-623 -80l29 170z" />
    <glyph glyph-name="Lcommaaccent" unicode="&#x13b;" horiz-adv-x="1626" 
d="M614 352h1063l-338 -352h-1210l244 1370h422zM547 -63h315l-248 -459h-147z" />
    <glyph glyph-name="lcommaaccent" unicode="&#x13c;" horiz-adv-x="1626" 
d="M614 352h1063l-338 -352h-1210l244 1370h422zM547 -63h315l-248 -459h-147z" />
    <glyph glyph-name="Lcaron" unicode="&#x13d;" horiz-adv-x="1626" 
d="M614 352h1063l-338 -352h-1210l244 1370h422zM1090 1370h378l-299 -549h-176z" />
    <glyph glyph-name="lcaron" unicode="&#x13e;" horiz-adv-x="1626" 
d="M614 352h1063l-338 -352h-1210l244 1370h422zM1090 1370h378l-299 -549h-176z" />
    <glyph glyph-name="Lslash" unicode="&#x141;" horiz-adv-x="1626" 
d="M614 352h1063l-338 -352h-1210l244 1370h422l-86 -477h671l-297 -309h-428z" />
    <glyph glyph-name="lslash" unicode="&#x142;" horiz-adv-x="1626" 
d="M614 352h1063l-338 -352h-1210l244 1370h422l-86 -477h671l-297 -309h-428z" />
    <glyph glyph-name="Nacute" unicode="&#x143;" horiz-adv-x="1871" 
d="M1513 -23q-46 0 -81 15.5t-76 58.5l-707 754l-141 -805h-385l199 1137q22 129 98.5 192.5t179.5 63.5q91 0 158 -74l706 -754l144 805h385l-203 -1134q-23 -129 -100 -194t-177 -65zM1571 1776l-41 -232l-623 -80l29 170z" />
    <glyph glyph-name="nacute" unicode="&#x144;" horiz-adv-x="1871" 
d="M1513 -23q-46 0 -81 15.5t-76 58.5l-707 754l-141 -805h-385l199 1137q22 129 98.5 192.5t179.5 63.5q91 0 158 -74l706 -754l144 805h385l-203 -1134q-23 -129 -100 -194t-177 -65zM1571 1776l-41 -232l-623 -80l29 170z" />
    <glyph glyph-name="Ncommaaccent" unicode="&#x145;" horiz-adv-x="1871" 
d="M1513 -23q-46 0 -81 15.5t-76 58.5l-707 754l-141 -805h-385l199 1137q22 129 98.5 192.5t179.5 63.5q91 0 158 -74l706 -754l144 805h385l-203 -1134q-23 -129 -100 -194t-177 -65zM709 -63h315l-248 -459h-147z" />
    <glyph glyph-name="ncommaaccent" unicode="&#x146;" horiz-adv-x="1871" 
d="M1513 -23q-46 0 -81 15.5t-76 58.5l-707 754l-141 -805h-385l199 1137q22 129 98.5 192.5t179.5 63.5q91 0 158 -74l706 -754l144 805h385l-203 -1134q-23 -129 -100 -194t-177 -65zM709 -63h315l-248 -459h-147z" />
    <glyph glyph-name="Ncaron" unicode="&#x147;" horiz-adv-x="1871" 
d="M1513 -23q-46 0 -81 15.5t-76 58.5l-707 754l-141 -805h-385l199 1137q22 129 98.5 192.5t179.5 63.5q91 0 158 -74l706 -754l144 805h385l-203 -1134q-23 -129 -100 -194t-177 -65zM1059 1464l-137 312h202l78 -207h19l149 207h205l-250 -312h-266z" />
    <glyph glyph-name="ncaron" unicode="&#x148;" horiz-adv-x="1871" 
d="M1513 -23q-46 0 -81 15.5t-76 58.5l-707 754l-141 -805h-385l199 1137q22 129 98.5 192.5t179.5 63.5q91 0 158 -74l706 -754l144 805h385l-203 -1134q-23 -129 -100 -194t-177 -65zM1059 1464l-137 312h202l78 -207h19l149 207h205l-250 -312h-266z" />
    <glyph glyph-name="Eng" unicode="&#x14a;" horiz-adv-x="1871" 
d="M827 -168h37q219 0 339 48t161 159l-715 766l-141 -805h-385l199 1137q22 129 99 192.5t177 63.5q93 0 160 -74l706 -754l142 805h385l-224 -1270q-111 -622 -964 -622h-314z" />
    <glyph glyph-name="eng" unicode="&#x14b;" horiz-adv-x="1871" 
d="M827 -168h37q219 0 339 48t161 159l-715 766l-141 -805h-385l199 1137q22 129 99 192.5t177 63.5q93 0 160 -74l706 -754l142 805h385l-224 -1270q-111 -622 -964 -622h-314z" />
    <glyph glyph-name="Omacron" unicode="&#x14c;" horiz-adv-x="2174" 
d="M1333 1393q447 0 669 -142t222 -438q0 -422 -282.5 -629t-858.5 -207q-447 0 -668.5 143t-221.5 439q0 422 282 628t858 206zM1145 334q106 0 186.5 4t148 15t114.5 26.5t84 41.5t59 57t36 76.5t19.5 96t5.5 119.5q0 66 -20 112.5t-57.5 76.5t-104 47t-147.5 23.5
t-199 6.5q-142 0 -240 -7.5t-173.5 -28t-119.5 -50t-72 -81.5t-37.5 -114t-9.5 -155q0 -66 20 -112.5t58 -76.5t104.5 -47t147 -23.5t197.5 -6.5zM1692 1706l-31 -170h-610l30 170h611z" />
    <glyph glyph-name="omacron" unicode="&#x14d;" horiz-adv-x="2174" 
d="M1333 1393q447 0 669 -142t222 -438q0 -422 -282.5 -629t-858.5 -207q-447 0 -668.5 143t-221.5 439q0 422 282 628t858 206zM1145 334q106 0 186.5 4t148 15t114.5 26.5t84 41.5t59 57t36 76.5t19.5 96t5.5 119.5q0 66 -20 112.5t-57.5 76.5t-104 47t-147.5 23.5
t-199 6.5q-142 0 -240 -7.5t-173.5 -28t-119.5 -50t-72 -81.5t-37.5 -114t-9.5 -155q0 -66 20 -112.5t58 -76.5t104.5 -47t147 -23.5t197.5 -6.5zM1692 1706l-31 -170h-610l30 170h611z" />
    <glyph glyph-name="Ohungarumlaut" unicode="&#x150;" horiz-adv-x="2174" 
d="M1333 1393q447 0 669 -142t222 -438q0 -422 -282.5 -629t-858.5 -207q-447 0 -668.5 143t-221.5 439q0 422 282 628t858 206zM1145 334q106 0 186.5 4t148 15t114.5 26.5t84 41.5t59 57t36 76.5t19.5 96t5.5 119.5q0 66 -20 112.5t-57.5 76.5t-104 47t-147.5 23.5
t-199 6.5q-142 0 -240 -7.5t-173.5 -28t-119.5 -50t-72 -81.5t-37.5 -114t-9.5 -155q0 -66 20 -112.5t58 -76.5t104.5 -47t147 -23.5t197.5 -6.5zM1800 1776l-254 -291h-155l151 291h258zM1425 1776l-254 -291h-155l151 291h258z" />
    <glyph glyph-name="ohungarumlaut" unicode="&#x151;" horiz-adv-x="2174" 
d="M1333 1393q447 0 669 -142t222 -438q0 -422 -282.5 -629t-858.5 -207q-447 0 -668.5 143t-221.5 439q0 422 282 628t858 206zM1145 334q106 0 186.5 4t148 15t114.5 26.5t84 41.5t59 57t36 76.5t19.5 96t5.5 119.5q0 66 -20 112.5t-57.5 76.5t-104 47t-147.5 23.5
t-199 6.5q-142 0 -240 -7.5t-173.5 -28t-119.5 -50t-72 -81.5t-37.5 -114t-9.5 -155q0 -66 20 -112.5t58 -76.5t104.5 -47t147 -23.5t197.5 -6.5zM1800 1776l-254 -291h-155l151 291h258zM1425 1776l-254 -291h-155l151 291h258z" />
    <glyph glyph-name="OE" unicode="&#x152;" horiz-adv-x="3084" 
d="M1964 352h1165l-333 -352h-1319q-161 -23 -394 -23q-447 0 -668.5 143t-221.5 439q0 422 282 628t858 206q231 0 385 -23h1587l-337 -356h-889l-29 -164h1085l-296 -311h-842zM1145 334q268 0 397 39l111 624q-108 39 -383 39q-142 0 -240 -7.5t-173.5 -28t-119.5 -50
t-72 -81.5t-37.5 -114t-9.5 -155q0 -66 20 -112.5t58 -76.5t104.5 -47t147 -23.5t197.5 -6.5z" />
    <glyph glyph-name="oe" unicode="&#x153;" horiz-adv-x="3084" 
d="M1964 352h1165l-333 -352h-1319q-161 -23 -394 -23q-447 0 -668.5 143t-221.5 439q0 422 282 628t858 206q231 0 385 -23h1587l-337 -356h-889l-29 -164h1085l-296 -311h-842zM1145 334q268 0 397 39l111 624q-108 39 -383 39q-142 0 -240 -7.5t-173.5 -28t-119.5 -50
t-72 -81.5t-37.5 -114t-9.5 -155q0 -66 20 -112.5t58 -76.5t104.5 -47t147 -23.5t197.5 -6.5z" />
    <glyph glyph-name="Racute" unicode="&#x154;" horiz-adv-x="2095" 
d="M1866 266l207 -266h-568l-241 362h-652l-63 -362h-424l123 700h1192q110 0 187 49t77 130q0 67 -54.5 101t-154.5 34h-1192l340 356h881q92 0 176 -11.5t168 -41t145 -75t99 -119.5t38 -169q0 -187 -122.5 -328.5t-319.5 -179.5q54 -48 158 -180zM1665 1776l-41 -232
l-623 -80l29 170z" />
    <glyph glyph-name="racute" unicode="&#x155;" horiz-adv-x="2095" 
d="M1866 266l207 -266h-568l-241 362h-652l-63 -362h-424l123 700h1192q110 0 187 49t77 130q0 67 -54.5 101t-154.5 34h-1192l340 356h881q92 0 176 -11.5t168 -41t145 -75t99 -119.5t38 -169q0 -187 -122.5 -328.5t-319.5 -179.5q54 -48 158 -180zM1665 1776l-41 -232
l-623 -80l29 170z" />
    <glyph glyph-name="Rcommaaccent" unicode="&#x156;" horiz-adv-x="2095" 
d="M1866 266l207 -266h-568l-241 362h-652l-63 -362h-424l123 700h1192q110 0 187 49t77 130q0 67 -54.5 101t-154.5 34h-1192l340 356h881q92 0 176 -11.5t168 -41t145 -75t99 -119.5t38 -169q0 -187 -122.5 -328.5t-319.5 -179.5q54 -48 158 -180zM840 -63h315l-248 -459
h-147z" />
    <glyph glyph-name="rcommaaccent" unicode="&#x157;" horiz-adv-x="2095" 
d="M1866 266l207 -266h-568l-241 362h-652l-63 -362h-424l123 700h1192q110 0 187 49t77 130q0 67 -54.5 101t-154.5 34h-1192l340 356h881q92 0 176 -11.5t168 -41t145 -75t99 -119.5t38 -169q0 -187 -122.5 -328.5t-319.5 -179.5q54 -48 158 -180zM840 -63h315l-248 -459
h-147z" />
    <glyph glyph-name="Rcaron" unicode="&#x158;" horiz-adv-x="2095" 
d="M1866 266l207 -266h-568l-241 362h-652l-63 -362h-424l123 700h1192q110 0 187 49t77 130q0 67 -54.5 101t-154.5 34h-1192l340 356h881q92 0 176 -11.5t168 -41t145 -75t99 -119.5t38 -169q0 -187 -122.5 -328.5t-319.5 -179.5q54 -48 158 -180zM1112 1464l-137 312h203
l77 -207h19l149 207h205l-250 -312h-266z" />
    <glyph glyph-name="rcaron" unicode="&#x159;" horiz-adv-x="2095" 
d="M1866 266l207 -266h-568l-241 362h-652l-63 -362h-424l123 700h1192q110 0 187 49t77 130q0 67 -54.5 101t-154.5 34h-1192l340 356h881q92 0 176 -11.5t168 -41t145 -75t99 -119.5t38 -169q0 -187 -122.5 -328.5t-319.5 -179.5q54 -48 158 -180zM1112 1464l-137 312h203
l77 -207h19l149 207h205l-250 -312h-266z" />
    <glyph glyph-name="Sacute" unicode="&#x15a;" horiz-adv-x="1972" 
d="M799 823h745q223 0 339 -79t116 -232q0 -115 -37.5 -206t-116 -161t-210.5 -107.5t-310 -37.5h-1276l334 352h1038q86 0 125 28.5t39 88.5q0 82 -129 82h-747q-226 0 -338.5 87.5t-112.5 242.5q0 107 38 194.5t116.5 154.5t209.5 103.5t306 36.5h1190l-336 -356h-951
q-87 0 -125 -26t-38 -87q0 -41 32 -59.5t99 -18.5zM1640 1776l-41 -232l-622 -80l29 170z" />
    <glyph glyph-name="sacute" unicode="&#x15b;" horiz-adv-x="1972" 
d="M799 823h745q223 0 339 -79t116 -232q0 -115 -37.5 -206t-116 -161t-210.5 -107.5t-310 -37.5h-1276l334 352h1038q86 0 125 28.5t39 88.5q0 82 -129 82h-747q-226 0 -338.5 87.5t-112.5 242.5q0 107 38 194.5t116.5 154.5t209.5 103.5t306 36.5h1190l-336 -356h-951
q-87 0 -125 -26t-38 -87q0 -41 32 -59.5t99 -18.5zM1640 1776l-41 -232l-622 -80l29 170z" />
    <glyph glyph-name="Scedilla" unicode="&#x15e;" horiz-adv-x="1972" 
d="M797 823h745q457 0 457 -299q0 -21 -8 -75q-78 -449 -666 -449h-1276l334 352h1038q164 0 164 121q0 78 -129 78h-747q-227 0 -340 83t-113 232q0 232 172.5 368t497.5 136h1190l-334 -356h-951q-81 0 -122 -27.5t-41 -89.5q0 -39 31 -56.5t98 -17.5zM815 -63h318
l-250 -459h-148z" />
    <glyph glyph-name="scedilla" unicode="&#x15f;" horiz-adv-x="1972" 
d="M797 823h745q457 0 457 -299q0 -21 -8 -75q-78 -449 -666 -449h-1276l334 352h1038q164 0 164 121q0 78 -129 78h-747q-227 0 -340 83t-113 232q0 232 172.5 368t497.5 136h1190l-334 -356h-951q-81 0 -122 -27.5t-41 -89.5q0 -39 31 -56.5t98 -17.5zM815 -63h318
l-250 -459h-148z" />
    <glyph glyph-name="Scaron" unicode="&#x160;" horiz-adv-x="1972" 
d="M799 823h745q223 0 339 -79t116 -232q0 -115 -37.5 -206t-116 -161t-210.5 -107.5t-310 -37.5h-1276l334 352h1038q86 0 125 28.5t39 88.5q0 82 -129 82h-747q-226 0 -338.5 87.5t-112.5 242.5q0 107 38 194.5t116.5 154.5t209.5 103.5t306 36.5h1190l-336 -356h-951
q-87 0 -125 -26t-38 -87q0 -41 32 -59.5t99 -18.5zM1118 1464l-137 312h203l78 -207h18l150 207h204l-250 -312h-266z" />
    <glyph glyph-name="scaron" unicode="&#x161;" horiz-adv-x="1972" 
d="M799 823h745q223 0 339 -79t116 -232q0 -115 -37.5 -206t-116 -161t-210.5 -107.5t-310 -37.5h-1276l334 352h1038q86 0 125 28.5t39 88.5q0 82 -129 82h-747q-226 0 -338.5 87.5t-112.5 242.5q0 107 38 194.5t116.5 154.5t209.5 103.5t306 36.5h1190l-336 -356h-951
q-87 0 -125 -26t-38 -87q0 -41 32 -59.5t99 -18.5zM1118 1464l-137 312h203l78 -207h18l150 207h204l-250 -312h-266z" />
    <glyph glyph-name="Tcaron" unicode="&#x164;" horiz-adv-x="1830" 
d="M518 1370h1557l-340 -356h-488l-180 -1014h-424l178 1014h-643zM981 1464l-137 312h203l77 -207h19l149 207h205l-250 -312h-266z" />
    <glyph glyph-name="tcaron" unicode="&#x165;" horiz-adv-x="1830" 
d="M518 1370h1557l-340 -356h-488l-180 -1014h-424l178 1014h-643zM981 1464l-137 312h203l77 -207h19l149 207h205l-250 -312h-266z" />
    <glyph glyph-name="Tbar" unicode="&#x166;" horiz-adv-x="1830" 
d="M668 825h120l33 189h-643l338 356h1557l-338 -356h-488l-35 -189h342l-256 -264h-133l-98 -561h-424l98 561h-327z" />
    <glyph glyph-name="tbar" unicode="&#x167;" horiz-adv-x="1830" 
d="M668 825h120l33 189h-643l338 356h1557l-338 -356h-488l-35 -189h342l-256 -264h-133l-98 -561h-424l98 561h-327z" />
    <glyph glyph-name="Utilde" unicode="&#x168;" horiz-adv-x="2019" 
d="M2150 1370l-137 -772q-111 -621 -962 -621q-437 0 -642.5 121.5t-205.5 370.5q0 61 12 129l137 772h424l-139 -772q-6 -44 -6 -76q0 -74 42.5 -114.5t146 -59t292.5 -18.5q164 0 262 27.5t146.5 84.5t66.5 156l137 772h426zM1419 1499q-53 0 -141 42t-141 42
q-92 0 -170 -74l30 170q68 62 168 62q53 0 140.5 -43t140.5 -43q92 0 170 74l-29 -168q-65 -62 -168 -62z" />
    <glyph glyph-name="utilde" unicode="&#x169;" horiz-adv-x="2019" 
d="M2150 1370l-137 -772q-111 -621 -962 -621q-437 0 -642.5 121.5t-205.5 370.5q0 61 12 129l137 772h424l-139 -772q-6 -44 -6 -76q0 -74 42.5 -114.5t146 -59t292.5 -18.5q164 0 262 27.5t146.5 84.5t66.5 156l137 772h426zM1419 1499q-53 0 -141 42t-141 42
q-92 0 -170 -74l30 170q68 62 168 62q53 0 140.5 -43t140.5 -43q92 0 170 74l-29 -168q-65 -62 -168 -62z" />
    <glyph glyph-name="Umacron" unicode="&#x16a;" horiz-adv-x="2019" 
d="M2150 1370l-137 -772q-111 -621 -962 -621q-437 0 -642.5 121.5t-205.5 370.5q0 61 12 129l137 772h424l-139 -772q-6 -44 -6 -76q0 -74 42.5 -114.5t146 -59t292.5 -18.5q164 0 262 27.5t146.5 84.5t66.5 156l137 772h426zM1614 1706l-31 -170h-610l31 170h610z" />
    <glyph glyph-name="umacron" unicode="&#x16b;" horiz-adv-x="2019" 
d="M2150 1370l-137 -772q-111 -621 -962 -621q-437 0 -642.5 121.5t-205.5 370.5q0 61 12 129l137 772h424l-139 -772q-6 -44 -6 -76q0 -74 42.5 -114.5t146 -59t292.5 -18.5q164 0 262 27.5t146.5 84.5t66.5 156l137 772h426zM1614 1706l-31 -170h-610l31 170h610z" />
    <glyph glyph-name="Ubreve" unicode="&#x16c;" horiz-adv-x="2019" 
d="M2150 1370l-137 -772q-111 -621 -962 -621q-437 0 -642.5 121.5t-205.5 370.5q0 61 12 129l137 772h424l-139 -772q-6 -44 -6 -76q0 -74 42.5 -114.5t146 -59t292.5 -18.5q164 0 262 27.5t146.5 84.5t66.5 156l137 772h426zM1444 1776h205q-6 -34 -21 -73.5t-43 -82
t-63 -77t-85 -57t-106 -22.5h-127q-59 0 -102.5 24t-66.5 63.5t-33.5 81.5t-10.5 87q0 24 4 56h203q-4 -32 -4 -54q0 -55 20 -94t68 -39h27q38 0 69 35.5t46 75.5t20 76z" />
    <glyph glyph-name="ubreve" unicode="&#x16d;" horiz-adv-x="2019" 
d="M2150 1370l-137 -772q-111 -621 -962 -621q-437 0 -642.5 121.5t-205.5 370.5q0 61 12 129l137 772h424l-139 -772q-6 -44 -6 -76q0 -74 42.5 -114.5t146 -59t292.5 -18.5q164 0 262 27.5t146.5 84.5t66.5 156l137 772h426zM1444 1776h205q-6 -34 -21 -73.5t-43 -82
t-63 -77t-85 -57t-106 -22.5h-127q-59 0 -102.5 24t-66.5 63.5t-33.5 81.5t-10.5 87q0 24 4 56h203q-4 -32 -4 -54q0 -55 20 -94t68 -39h27q38 0 69 35.5t46 75.5t20 76z" />
    <glyph glyph-name="Uring" unicode="&#x16e;" horiz-adv-x="2019" 
d="M2150 1370l-137 -772q-111 -621 -962 -621q-437 0 -642.5 121.5t-205.5 370.5q0 61 12 129l137 772h424l-139 -772q-6 -44 -6 -76q0 -74 42.5 -114.5t146 -59t292.5 -18.5q164 0 262 27.5t146.5 84.5t66.5 156l137 772h426zM1419 1788h-194q-17 0 -29.5 -10t-15.5 -27
q-19 -112 -19 -115q0 -26 33 -26h195q41 0 47 37l18 104q0 19 -7.5 28t-27.5 9zM1614 1763l-23 -129q-30 -170 -241 -170h-168q-187 0 -187 131q0 11 4 39l25 129q14 88 71 130t171 42h166q186 0 186 -131q0 -13 -4 -41z" />
    <glyph glyph-name="uring" unicode="&#x16f;" horiz-adv-x="2019" 
d="M2150 1370l-137 -772q-111 -621 -962 -621q-437 0 -642.5 121.5t-205.5 370.5q0 61 12 129l137 772h424l-139 -772q-6 -44 -6 -76q0 -74 42.5 -114.5t146 -59t292.5 -18.5q164 0 262 27.5t146.5 84.5t66.5 156l137 772h426zM1419 1788h-194q-17 0 -29.5 -10t-15.5 -27
q-19 -112 -19 -115q0 -26 33 -26h195q41 0 47 37l18 104q0 19 -7.5 28t-27.5 9zM1614 1763l-23 -129q-30 -170 -241 -170h-168q-187 0 -187 131q0 11 4 39l25 129q14 88 71 130t171 42h166q186 0 186 -131q0 -13 -4 -41z" />
    <glyph glyph-name="Uhungarumlaut" unicode="&#x170;" horiz-adv-x="2019" 
d="M2150 1370l-137 -772q-111 -621 -962 -621q-437 0 -642.5 121.5t-205.5 370.5q0 61 12 129l137 772h424l-139 -772q-6 -44 -6 -76q0 -74 42.5 -114.5t146 -59t292.5 -18.5q164 0 262 27.5t146.5 84.5t66.5 156l137 772h426zM1761 1776l-254 -291h-155l151 291h258z
M1386 1776l-253 -291h-156l151 291h258z" />
    <glyph glyph-name="uhungarumlaut" unicode="&#x171;" horiz-adv-x="2019" 
d="M2150 1370l-137 -772q-111 -621 -962 -621q-437 0 -642.5 121.5t-205.5 370.5q0 61 12 129l137 772h424l-139 -772q-6 -44 -6 -76q0 -74 42.5 -114.5t146 -59t292.5 -18.5q164 0 262 27.5t146.5 84.5t66.5 156l137 772h426zM1761 1776l-254 -291h-155l151 291h258z
M1386 1776l-253 -291h-156l151 291h258z" />
    <glyph glyph-name="Uogonek" unicode="&#x172;" horiz-adv-x="2019" 
d="M1300 -250l-47 -262h-213q-100 0 -157.5 43.5t-57.5 108.5q0 103 138 206l186 136q-83 -5 -100 -5q-436 0 -642 121t-206 369q0 52 14 131l135 772h424l-137 -772q-6 -44 -6 -78q0 -73 42.5 -113t145.5 -58.5t291 -18.5q164 0 262 27.5t147.5 84.5t67.5 156l135 772h428
l-137 -772q-89 -506 -670 -598l-253 -180q-30 -21 -27 -43q0 -27 39 -27h198z" />
    <glyph glyph-name="uogonek" unicode="&#x173;" horiz-adv-x="2019" 
d="M1300 -250l-47 -262h-213q-100 0 -157.5 43.5t-57.5 108.5q0 103 138 206l186 136q-83 -5 -100 -5q-436 0 -642 121t-206 369q0 52 14 131l135 772h424l-137 -772q-6 -44 -6 -78q0 -73 42.5 -113t145.5 -58.5t291 -18.5q164 0 262 27.5t147.5 84.5t67.5 156l135 772h428
l-137 -772q-89 -506 -670 -598l-253 -180q-30 -21 -27 -43q0 -27 39 -27h198z" />
    <glyph glyph-name="Wcircumflex" unicode="&#x174;" horiz-adv-x="2580" 
d="M1745 123l-152 387q-98 245 -147 412q-79 -127 -291 -410l-289 -389q-105 -146 -258 -146q-83 0 -139.5 48.5t-65.5 140.5l-133 1204h422l45 -477q25 -320 27 -377q143 220 258 379l246 344q68 94 126 124t142 30q87 0 135.5 -30t81.5 -124l123 -346q80 -228 127 -377
q54 152 158 377l215 477h415l-569 -1204q-43 -93 -114.5 -141t-155.5 -48q-150 0 -207 146zM1737 1776l137 -312h-203l-78 207h-20l-148 -207h-204l247 312h269z" />
    <glyph glyph-name="wcircumflex" unicode="&#x175;" horiz-adv-x="2580" 
d="M1745 123l-152 387q-98 245 -147 412q-79 -127 -291 -410l-289 -389q-105 -146 -258 -146q-83 0 -139.5 48.5t-65.5 140.5l-133 1204h422l45 -477q25 -320 27 -377q143 220 258 379l246 344q68 94 126 124t142 30q87 0 135.5 -30t81.5 -124l123 -346q80 -228 127 -377
q54 152 158 377l215 477h415l-569 -1204q-43 -93 -114.5 -141t-155.5 -48q-150 0 -207 146zM1737 1776l137 -312h-203l-78 207h-20l-148 -207h-204l247 312h269z" />
    <glyph glyph-name="Ycircumflex" unicode="&#x176;" horiz-adv-x="2105" 
d="M1800 1370h533l-977 -917l-78 -453h-426l80 455l-674 915h545l262 -381q127 -177 145 -215q111 117 211 217zM1530 1776l137 -312h-203l-78 207h-20l-147 -207h-205l248 312h268z" />
    <glyph glyph-name="ycircumflex" unicode="&#x177;" horiz-adv-x="2105" 
d="M1800 1370h533l-977 -917l-78 -453h-426l80 455l-674 915h545l262 -381q127 -177 145 -215q111 117 211 217zM1530 1776l137 -312h-203l-78 207h-20l-147 -207h-205l248 312h268z" />
    <glyph glyph-name="Ydieresis" unicode="&#x178;" horiz-adv-x="2105" 
d="M1800 1370h533l-977 -917l-78 -453h-426l80 455l-674 915h545l262 -381q127 -177 145 -215q111 117 211 217zM995 1632q0 66 51.5 108t122.5 42q58 0 93.5 -29.5t35.5 -81.5q0 -68 -50.5 -107.5t-123.5 -39.5q-58 0 -93.5 28.5t-35.5 79.5zM1427 1632q0 66 52 108t123 42
q58 0 93.5 -29.5t35.5 -81.5q0 -68 -51 -107.5t-124 -39.5q-57 0 -93 28.5t-36 79.5z" />
    <glyph glyph-name="Zacute" unicode="&#x179;" horiz-adv-x="1841" 
d="M1886 352l-317 -352h-1299q-73 0 -121.5 39t-48.5 106q0 108 127 197l568 393q334 231 428 287q-101 -8 -473 -8h-549l334 356h1263q75 0 122.5 -38.5t47.5 -106.5q0 -111 -125 -195l-577 -401q-299 -208 -422 -285q136 8 547 8h495zM1536 1776l-41 -232l-623 -80l29 170
z" />
    <glyph glyph-name="zacute" unicode="&#x17a;" horiz-adv-x="1841" 
d="M1886 352l-317 -352h-1299q-73 0 -121.5 39t-48.5 106q0 108 127 197l568 393q334 231 428 287q-101 -8 -473 -8h-549l334 356h1263q75 0 122.5 -38.5t47.5 -106.5q0 -111 -125 -195l-577 -401q-299 -208 -422 -285q136 8 547 8h495zM1536 1776l-41 -232l-623 -80l29 170
z" />
    <glyph glyph-name="Zdotaccent" unicode="&#x17b;" horiz-adv-x="1841" 
d="M1886 352l-317 -352h-1299q-73 0 -121.5 39t-48.5 106q0 108 127 197l568 393q334 231 428 287q-101 -8 -473 -8h-549l334 356h1263q75 0 122.5 -38.5t47.5 -106.5q0 -111 -125 -195l-577 -401q-299 -208 -422 -285q136 8 547 8h495zM1100 1622q0 67 51 108.5t123 41.5
q58 0 93.5 -29.5t35.5 -81.5q0 -67 -51 -107.5t-123 -40.5q-58 0 -93.5 29t-35.5 80z" />
    <glyph glyph-name="zdotaccent" unicode="&#x17c;" horiz-adv-x="1841" 
d="M1886 352l-317 -352h-1299q-73 0 -121.5 39t-48.5 106q0 108 127 197l568 393q334 231 428 287q-101 -8 -473 -8h-549l334 356h1263q75 0 122.5 -38.5t47.5 -106.5q0 -111 -125 -195l-577 -401q-299 -208 -422 -285q136 8 547 8h495zM1100 1622q0 67 51 108.5t123 41.5
q58 0 93.5 -29.5t35.5 -81.5q0 -67 -51 -107.5t-123 -40.5q-58 0 -93.5 29t-35.5 80z" />
    <glyph glyph-name="Zcaron" unicode="&#x17d;" horiz-adv-x="1841" 
d="M1886 352l-317 -352h-1299q-73 0 -121.5 39t-48.5 106q0 108 127 197l568 393q334 231 428 287q-101 -8 -473 -8h-549l334 356h1263q75 0 122.5 -38.5t47.5 -106.5q0 -111 -125 -195l-577 -401q-299 -208 -422 -285q136 8 547 8h495zM1063 1464l-137 312h202l78 -207h19
l149 207h205l-250 -312h-266z" />
    <glyph glyph-name="zcaron" unicode="&#x17e;" horiz-adv-x="1841" 
d="M1886 352l-317 -352h-1299q-73 0 -121.5 39t-48.5 106q0 108 127 197l568 393q334 231 428 287q-101 -8 -473 -8h-549l334 356h1263q75 0 122.5 -38.5t47.5 -106.5q0 -111 -125 -195l-577 -401q-299 -208 -422 -285q136 8 547 8h495zM1063 1464l-137 312h202l78 -207h19
l149 207h205l-250 -312h-266z" />
    <glyph glyph-name="Scommaaccent" unicode="&#x218;" horiz-adv-x="1972" 
d="M799 823h745q223 0 339 -79t116 -232q0 -115 -37.5 -206t-116 -161t-210.5 -107.5t-310 -37.5h-1276l334 352h1038q86 0 125 28.5t39 88.5q0 82 -129 82h-747q-226 0 -338.5 87.5t-112.5 242.5q0 107 38 194.5t116.5 154.5t209.5 103.5t306 36.5h1190l-336 -356h-951
q-87 0 -125 -26t-38 -87q0 -41 32 -59.5t99 -18.5zM817 -63h316l-248 -459h-148z" />
    <glyph glyph-name="scommaaccent" unicode="&#x219;" horiz-adv-x="1972" 
d="M799 823h745q223 0 339 -79t116 -232q0 -115 -37.5 -206t-116 -161t-210.5 -107.5t-310 -37.5h-1276l334 352h1038q86 0 125 28.5t39 88.5q0 82 -129 82h-747q-226 0 -338.5 87.5t-112.5 242.5q0 107 38 194.5t116.5 154.5t209.5 103.5t306 36.5h1190l-336 -356h-951
q-87 0 -125 -26t-38 -87q0 -41 32 -59.5t99 -18.5zM817 -63h316l-248 -459h-148z" />
    <glyph glyph-name="uni021A" unicode="&#x21a;" horiz-adv-x="1830" 
d="M518 1370h1557l-340 -356h-488l-180 -1014h-424l178 1014h-643zM688 -63h316l-248 -459h-148z" />
    <glyph glyph-name="uni021B" unicode="&#x21b;" horiz-adv-x="1830" 
d="M518 1370h1557l-340 -356h-488l-180 -1014h-424l178 1014h-643zM688 -63h316l-248 -459h-148z" />
    <glyph glyph-name="circumflex" unicode="&#x2c6;" horiz-adv-x="847" 
d="M870 1776l138 -312h-203l-78 207h-20l-148 -207h-205l248 312h268z" />
    <glyph glyph-name="caron" unicode="&#x2c7;" horiz-adv-x="847" 
d="M547 1464l-137 312h202l78 -207h19l149 207h205l-250 -312h-266z" />
    <glyph glyph-name="breve" unicode="&#x2d8;" horiz-adv-x="847" 
d="M858 1776h205q-6 -34 -21 -73.5t-43 -82t-63 -77t-85 -57t-106 -22.5h-127q-59 0 -102.5 24t-66 63.5t-33 81.5t-10.5 87q0 24 4 56h202q-4 -32 -4 -54q0 -55 20 -94t68 -39h27q38 0 69 35.5t46 75.5t20 76z" />
    <glyph glyph-name="dotaccent" unicode="&#x2d9;" horiz-adv-x="452" 
d="M365 1622q0 67 51 108.5t123 41.5q58 0 93.5 -29.5t35.5 -81.5q0 -67 -51 -107.5t-123 -40.5q-58 0 -93.5 29t-35.5 80z" />
    <glyph glyph-name="ring" unicode="&#x2da;" horiz-adv-x="784" 
d="M803 1788h-195q-17 0 -29.5 -10t-15.5 -27q-18 -106 -18 -115q0 -26 33 -26h194q41 0 47 37l19 104q0 19 -7.5 28t-27.5 9zM997 1763l-22 -129q-30 -170 -242 -170h-168q-186 0 -186 131q0 11 4 39l25 129q14 88 71 130t170 42h166q186 0 186 -131q0 -13 -4 -41z" />
    <glyph glyph-name="ogonek" unicode="&#x2db;" horiz-adv-x="632" 
d="M492 -250l-46 -262h-213q-100 0 -157.5 45.5t-57.5 112.5q0 102 138 200l215 154h166l-254 -180q-29 -23 -29 -41q0 -11 10.5 -20t28.5 -9h199z" />
    <glyph glyph-name="tilde" unicode="&#x2dc;" horiz-adv-x="804" 
d="M813 1499q-53 0 -141.5 42t-141.5 42q-92 0 -170 -74l31 170q68 62 168 62q53 0 140.5 -43t140.5 -43q92 0 170 74l-29 -168q-65 -62 -168 -62z" />
    <glyph glyph-name="hungarumlaut" unicode="&#x2dd;" horiz-adv-x="925" 
d="M1200 1776l-254 -291h-155l151 291h258zM825 1776l-254 -291h-155l151 291h258z" />
    <glyph glyph-name="commaaccent" unicode="&#x326;" horiz-adv-x="530" 
d="M123 -63h315l-248 -459h-147z" />
    <glyph glyph-name="Wgrave" unicode="&#x1e80;" horiz-adv-x="2580" 
d="M1745 123l-152 387q-98 245 -147 412q-79 -127 -291 -410l-289 -389q-105 -146 -258 -146q-83 0 -139.5 48.5t-65.5 140.5l-133 1204h422l45 -477q25 -320 27 -377q143 220 258 379l246 344q68 94 126 124t142 30q87 0 135.5 -30t81.5 -124l123 -346q80 -228 127 -377
q54 152 158 377l215 477h415l-569 -1204q-43 -93 -114.5 -141t-155.5 -48q-150 0 -207 146zM1823 1634l-29 -170l-598 80l41 232z" />
    <glyph glyph-name="wgrave" unicode="&#x1e81;" horiz-adv-x="2580" 
d="M1745 123l-152 387q-98 245 -147 412q-79 -127 -291 -410l-289 -389q-105 -146 -258 -146q-83 0 -139.5 48.5t-65.5 140.5l-133 1204h422l45 -477q25 -320 27 -377q143 220 258 379l246 344q68 94 126 124t142 30q87 0 135.5 -30t81.5 -124l123 -346q80 -228 127 -377
q54 152 158 377l215 477h415l-569 -1204q-43 -93 -114.5 -141t-155.5 -48q-150 0 -207 146zM1823 1634l-29 -170l-598 80l41 232z" />
    <glyph glyph-name="Wacute" unicode="&#x1e82;" horiz-adv-x="2580" 
d="M1745 123l-152 387q-98 245 -147 412q-79 -127 -291 -410l-289 -389q-105 -146 -258 -146q-83 0 -139.5 48.5t-65.5 140.5l-133 1204h422l45 -477q25 -320 27 -377q143 220 258 379l246 344q68 94 126 124t142 30q87 0 135.5 -30t81.5 -124l123 -346q80 -228 127 -377
q54 152 158 377l215 477h415l-569 -1204q-43 -93 -114.5 -141t-155.5 -48q-150 0 -207 146zM1964 1776l-41 -232l-623 -80l29 170z" />
    <glyph glyph-name="wacute" unicode="&#x1e83;" horiz-adv-x="2580" 
d="M1745 123l-152 387q-98 245 -147 412q-79 -127 -291 -410l-289 -389q-105 -146 -258 -146q-83 0 -139.5 48.5t-65.5 140.5l-133 1204h422l45 -477q25 -320 27 -377q143 220 258 379l246 344q68 94 126 124t142 30q87 0 135.5 -30t81.5 -124l123 -346q80 -228 127 -377
q54 152 158 377l215 477h415l-569 -1204q-43 -93 -114.5 -141t-155.5 -48q-150 0 -207 146zM1964 1776l-41 -232l-623 -80l29 170z" />
    <glyph glyph-name="Wdieresis" unicode="&#x1e84;" horiz-adv-x="2580" 
d="M1745 123l-152 387q-98 245 -147 412q-79 -127 -291 -410l-289 -389q-105 -146 -258 -146q-83 0 -139.5 48.5t-65.5 140.5l-133 1204h422l45 -477q25 -320 27 -377q143 220 258 379l246 344q68 94 126 124t142 30q87 0 135.5 -30t81.5 -124l123 -346q80 -228 127 -377
q54 152 158 377l215 477h415l-569 -1204q-43 -93 -114.5 -141t-155.5 -48q-150 0 -207 146zM1212 1632q0 66 51.5 108t122.5 42q58 0 94 -29.5t36 -81.5q0 -68 -51 -107.5t-124 -39.5q-58 0 -93.5 28.5t-35.5 79.5zM1645 1632q0 66 51.5 108t122.5 42q58 0 93.5 -29.5
t35.5 -81.5q0 -68 -50.5 -107.5t-123.5 -39.5q-57 0 -93 28.5t-36 79.5z" />
    <glyph glyph-name="wdieresis" unicode="&#x1e85;" horiz-adv-x="2580" 
d="M1745 123l-152 387q-98 245 -147 412q-79 -127 -291 -410l-289 -389q-105 -146 -258 -146q-83 0 -139.5 48.5t-65.5 140.5l-133 1204h422l45 -477q25 -320 27 -377q143 220 258 379l246 344q68 94 126 124t142 30q87 0 135.5 -30t81.5 -124l123 -346q80 -228 127 -377
q54 152 158 377l215 477h415l-569 -1204q-43 -93 -114.5 -141t-155.5 -48q-150 0 -207 146zM1212 1632q0 66 51.5 108t122.5 42q58 0 94 -29.5t36 -81.5q0 -68 -51 -107.5t-124 -39.5q-58 0 -93.5 28.5t-35.5 79.5zM1645 1632q0 66 51.5 108t122.5 42q58 0 93.5 -29.5
t35.5 -81.5q0 -68 -50.5 -107.5t-123.5 -39.5q-57 0 -93 28.5t-36 79.5z" />
    <glyph glyph-name="Ygrave" unicode="&#x1ef2;" horiz-adv-x="2105" 
d="M1800 1370h533l-977 -917l-78 -453h-426l80 455l-674 915h545l262 -381q127 -177 145 -215q111 117 211 217zM1585 1634l-29 -170l-598 80l41 232z" />
    <glyph glyph-name="ygrave" unicode="&#x1ef3;" horiz-adv-x="2105" 
d="M1800 1370h533l-977 -917l-78 -453h-426l80 455l-674 915h545l262 -381q127 -177 145 -215q111 117 211 217zM1585 1634l-29 -170l-598 80l41 232z" />
    <glyph glyph-name="endash" unicode="&#x2013;" horiz-adv-x="1280" 
d="M383 825h1014l-254 -264h-1014z" />
    <glyph glyph-name="emdash" unicode="&#x2014;" horiz-adv-x="2054" 
d="M383 825h1790l-254 -264h-1790z" />
    <glyph glyph-name="quoteleft" unicode="&#x2018;" horiz-adv-x="448" 
d="M559 821h-379l299 549h176z" />
    <glyph glyph-name="quoteright" unicode="&#x2019;" horiz-adv-x="448" 
d="M276 1370h379l-299 -549h-176z" />
    <glyph glyph-name="quotesinglbase" unicode="&#x201a;" horiz-adv-x="448" 
d="M96 352h379l-299 -549h-176z" />
    <glyph glyph-name="uni201B" unicode="&#x201b;" horiz-adv-x="448" 
d="M276 1370h379l-96 -549h-178z" />
    <glyph glyph-name="quotedblleft" unicode="&#x201c;" horiz-adv-x="913" 
d="M559 821h-379l299 549h176zM1024 821h-379l299 549h176z" />
    <glyph glyph-name="quotedblright" unicode="&#x201d;" horiz-adv-x="913" 
d="M741 1370h379l-299 -549h-176zM276 1370h379l-299 -549h-176z" />
    <glyph glyph-name="quotedblbase" unicode="&#x201e;" horiz-adv-x="913" 
d="M561 352h379l-299 -549h-176zM96 352h379l-299 -549h-176z" />
    <glyph glyph-name="uni201F" unicode="&#x201f;" horiz-adv-x="913" 
d="M276 1370h379l-96 -549h-178zM741 1370h379l-96 -549h-176z" />
    <glyph glyph-name="dagger" unicode="&#x2020;" horiz-adv-x="878" 
d="M594 1370l63 -371l256 -77l-254 -80l-63 -842h-55l-62 842l-256 80l256 77l64 371h51z" />
    <glyph glyph-name="daggerdbl" unicode="&#x2021;" horiz-adv-x="892" 
d="M578 1370l59 -313l254 -64v-41l-250 -65v-406l250 -63v-41l-254 -64l-59 -315h-50l-63 315l-250 64v41l248 63v408l-250 74l4 43l248 53l63 311h50z" />
    <glyph glyph-name="bullet" unicode="&#x2022;" horiz-adv-x="937" 
d="M238 686q0 145 102.5 246.5t247.5 101.5q143 0 245.5 -102t102.5 -246t-102.5 -246t-245.5 -102q-145 0 -247.5 101.5t-102.5 246.5z" />
    <glyph glyph-name="ellipsis" unicode="&#x2026;" horiz-adv-x="1898" 
d="M113 143q0 104 79 168t189 64q88 0 144.5 -46t56.5 -124q0 -103 -80 -165.5t-191 -62.5q-87 0 -142.5 45t-55.5 121zM745 143q0 104 79.5 168t189.5 64q88 0 144 -46t56 -124q0 -103 -79.5 -165.5t-190.5 -62.5q-87 0 -143 45t-56 121zM1378 143q0 104 79.5 168t189.5 64
q88 0 144 -46t56 -124q0 -103 -79.5 -165.5t-190.5 -62.5q-87 0 -143 45t-56 121z" />
    <glyph glyph-name="perthousand" unicode="&#x2030;" horiz-adv-x="2783" 
d="M772 1417q192 0 286.5 -64.5t94.5 -201.5q0 -223 -133 -331.5t-373 -108.5q-193 0 -288 65t-95 201q0 223 132.5 331.5t375.5 108.5zM678 889q70 0 115.5 9t81 34t51.5 71.5t16 120.5q0 69 -45 92t-158 23q-71 0 -116 -8.5t-81 -33t-51.5 -71t-15.5 -120.5
q0 -69 45.5 -93t157.5 -24zM1649 1446h172l-1360 -1524h-187zM1466 676q192 0 286.5 -64.5t94.5 -201.5q0 -223 -133 -332t-373 -109q-193 0 -288 65.5t-95 201.5q0 223 132.5 331.5t375.5 108.5zM1372 147q70 0 115.5 9t81 34t51.5 72t16 121q0 69 -44.5 92t-157.5 23
q-71 0 -116.5 -9t-81 -33.5t-51.5 -71t-16 -120.5q0 -69 45.5 -93t157.5 -24zM2382 676q192 0 286.5 -64.5t94.5 -201.5q0 -223 -133 -332t-373 -109q-193 0 -288 65.5t-95 201.5q0 223 132.5 331.5t375.5 108.5zM2288 147q70 0 115.5 9t81 34t51.5 72t16 121q0 69 -45 92
t-158 23q-71 0 -116.5 -8.5t-81 -33.5t-51 -71.5t-15.5 -120.5q0 -69 45.5 -93t157.5 -24z" />
    <glyph glyph-name="uni2032" unicode="&#x2032;" horiz-adv-x="567" 
d="M440 1370h301l-413 -549h-154z" />
    <glyph glyph-name="uni2033" unicode="&#x2033;" horiz-adv-x="991" 
d="M440 1370h301l-413 -549h-154zM864 1370h301l-413 -549h-154z" />
    <glyph glyph-name="guilsinglleft" unicode="&#x2039;" horiz-adv-x="501" 
d="M559 813l-258 -147l205 -152l-33 -190l-313 241l33 187l401 256z" />
    <glyph glyph-name="guilsinglright" unicode="&#x203a;" horiz-adv-x="501" 
d="M444 666l-208 147l34 195l314 -256l-33 -187l-399 -241l32 190z" />
    <glyph glyph-name="fraction" unicode="&#x2044;" horiz-adv-x="579" 
d="M1024 1446h172l-1360 -1524h-186z" />
    <glyph glyph-name="zerosuperior" unicode="&#x2070;" horiz-adv-x="1017" 
d="M758 1417q192 0 286.5 -64.5t94.5 -201.5q0 -223 -133 -331.5t-373 -108.5q-193 0 -288 65t-95 201q0 223 132.5 331.5t375.5 108.5zM664 889q70 0 115.5 9t81 34t51.5 71.5t16 120.5q0 69 -45 92t-158 23q-71 0 -116 -8.5t-81 -33t-51.5 -71t-15.5 -120.5
q0 -69 45.5 -93t157.5 -24z" />
    <glyph glyph-name="foursuperior" unicode="&#x2074;" horiz-adv-x="1040" 
d="M745 803h-446q-40 0 -63 22t-23 54q0 57 59 100l566 401q47 37 104 37q42 0 69 -22.5t27 -69.5q0 -11 -4 -35l-55 -317h195l-154 -170h-72l-12 -80h-205zM774 973l21 100q6 41 18 88l-86 -63l-86 -62q-42 -30 -104 -67q58 4 116 4h121z" />
    <glyph glyph-name="fivesuperior" unicode="&#x2075;" horiz-adv-x="978" 
d="M352 1407h774l-165 -178h-429l-18 -96h332q229 0 229 -150q0 -123 -87.5 -191.5t-250.5 -68.5h-540l168 176h421q40 0 60 13.5t20 45.5q0 39 -63 39h-522z" />
    <glyph glyph-name="sixsuperior" unicode="&#x2076;" horiz-adv-x="1052" 
d="M690 1229q-64 0 -118 -25.5t-85 -70.5h433q107 0 167 -40t60 -116q0 -78 -40.5 -132.5t-111.5 -82.5t-148 -39.5t-171 -11.5q-214 0 -320 68t-106 212q0 180 137 298t342 118h442l-167 -178h-314zM881 997h-416q6 -65 64.5 -86.5t189.5 -21.5q91 0 141 8t68 22t18 39
q0 39 -65 39z" />
    <glyph glyph-name="sevensuperior" unicode="&#x2077;" horiz-adv-x="921" 
d="M1065 1235l-528 -512h-269l404 377q107 102 149 133q-39 -4 -194 -4h-371l166 178h592q50 0 75 -21t25 -57q0 -45 -49 -94z" />
    <glyph glyph-name="eightsuperior" unicode="&#x2078;" horiz-adv-x="1032" 
d="M809 723h-336q-246 0 -246 151q0 76 39 129.5t99 71.5q-30 10 -51 37.5t-21 69.5q0 109 85 167t222 58h324q113 0 175 -40t62 -116q0 -69 -37 -115.5t-82 -60.5q36 -12 58 -44t22 -77q0 -104 -76 -167.5t-237 -63.5zM856 991h-336q-76 0 -76 -57q0 -35 62 -35h334
q73 0 73 55q0 37 -57 37zM903 1229h-344q-27 0 -47 -12.5t-20 -40.5q0 -37 53 -37h342q27 0 46 13.5t19 41.5q0 35 -49 35z" />
    <glyph glyph-name="ninesuperior" unicode="&#x2079;" horiz-adv-x="1052" 
d="M428 899h305q128 0 205 113q-113 -17 -436 -17q-106 0 -167 40.5t-61 115.5q0 78 40.5 132.5t112 82.5t149.5 39.5t172 11.5q426 0 426 -266q0 -128 -67 -227t-176 -150t-239 -51h-432zM541 1130q305 0 417 11q-4 61 -62 79.5t-194 18.5q-133 0 -181 -17t-48 -55
q0 -37 68 -37z" />
    <glyph glyph-name="zeroinferior" unicode="&#x2080;" horiz-adv-x="1017" 
d="M629 676q192 0 286.5 -64.5t94.5 -201.5q0 -223 -133 -332t-373 -109q-193 0 -288 65.5t-95 201.5q0 223 132.5 331.5t375.5 108.5zM535 147q70 0 115.5 9t81 34t51.5 72t16 121q0 69 -45 92t-158 23q-71 0 -116.5 -8.5t-81 -33.5t-51 -71.5t-15.5 -120.5q0 -69 45.5 -93
t157.5 -24z" />
    <glyph glyph-name="oneinferior" unicode="&#x2081;" horiz-adv-x="514" 
d="M127 487l158 179h252l-121 -684h-213l90 505h-166z" />
    <glyph glyph-name="twoinferior" unicode="&#x2082;" horiz-adv-x="1015" 
d="M193 487l165 179h402q262 0 262 -172q0 -107 -77.5 -172.5t-219.5 -65.5h-326q-73 0 -82 -51l-8 -47h662l-168 -176h-729l39 221q30 188 290 188h326q82 0 82 60q0 36 -66 36h-552z" />
    <glyph glyph-name="threeinferior" unicode="&#x2083;" horiz-adv-x="991" 
d="M35 -18l164 176h469q73 0 73 55q0 37 -57 37h-412l140 147h303q27 0 46 14t19 42q0 34 -49 34h-573l166 179h428q114 0 176.5 -40t62.5 -116q0 -68 -38 -115t-83 -61q38 -12 60 -44t22 -77q0 -104 -77 -167.5t-238 -63.5h-602z" />
    <glyph glyph-name="fourinferior" unicode="&#x2084;" horiz-adv-x="1040" 
d="M616 61h-446q-40 0 -63 22t-23 54q0 58 59 101l566 401q47 37 104 37q42 0 69 -22.5t27 -69.5q0 -11 -4 -35l-55 -318h194l-153 -170h-72l-12 -79h-205zM645 231l21 101q6 41 18 88l-86 -64l-86 -61q-50 -36 -104 -68q58 4 116 4h121z" />
    <glyph glyph-name="fiveinferior" unicode="&#x2085;" horiz-adv-x="978" 
d="M223 666h774l-166 -179h-428l-18 -96h332q229 0 229 -149q0 -123 -87.5 -191.5t-250.5 -68.5h-540l168 176h421q40 0 60 13.5t20 45.5q0 39 -63 39h-522z" />
    <glyph glyph-name="sixinferior" unicode="&#x2086;" horiz-adv-x="1052" 
d="M561 487q-64 0 -118 -25.5t-85 -70.5h433q107 0 167 -40t60 -115q0 -63 -27.5 -111t-72 -77t-108 -47.5t-127 -25t-136.5 -6.5q-214 0 -320 68.5t-106 212.5q0 180 137 298t342 118h442l-168 -179h-313zM752 256h-416q6 -65 65 -87t189 -22q90 0 140.5 8t68.5 22.5
t18 39.5q0 39 -65 39z" />
    <glyph glyph-name="seveninferior" unicode="&#x2087;" horiz-adv-x="921" 
d="M936 494l-528 -512h-269l404 376q111 106 149 134q-49 -5 -194 -5h-371l166 179h592q50 0 75 -21t25 -57q0 -45 -49 -94z" />
    <glyph glyph-name="eightinferior" unicode="&#x2088;" horiz-adv-x="1032" 
d="M680 -18h-336q-246 0 -246 151q0 76 39 129.5t99 71.5q-31 10 -51.5 37.5t-20.5 68.5q0 109 85 167.5t222 58.5h324q113 0 175 -40t62 -116q0 -69 -37 -115.5t-82 -60.5q36 -12 58 -44t22 -77q0 -104 -76 -167.5t-237 -63.5zM727 250h-336q-76 0 -76 -57q0 -35 62 -35
h334q73 0 73 55q0 37 -57 37zM774 487h-344q-28 0 -48 -12.5t-20 -40.5q0 -37 54 -37h342q27 0 46 14t19 42q0 34 -49 34z" />
    <glyph glyph-name="nineinferior" unicode="&#x2089;" horiz-adv-x="1052" 
d="M299 158h305q66 0 118 30.5t87 81.5q-106 -16 -436 -16q-106 0 -167 40.5t-61 115.5q0 266 473 266q426 0 426 -266q0 -128 -67 -227t-175.5 -150t-238.5 -51h-432zM412 389q315 0 417 10q-2 32 -18.5 52.5t-52 30.5t-77 13t-108.5 3q-133 0 -181 -17t-48 -55
q0 -37 68 -37z" />
    <glyph glyph-name="Euro" unicode="&#x20ac;" horiz-adv-x="1820" 
d="M145 743l117 138h98q106 223 347.5 356t539.5 133h768l-340 -356h-491q-207 0 -350 -133h712l-127 -138h-678q-22 -73 -22 -102h600l-129 -135h-442q39 -72 122.5 -113t196.5 -41h690l-334 -352h-417q-293 0 -484.5 139.5t-222.5 366.5h-197l117 135h76q10 77 18 102
h-168z" />
    <glyph glyph-name="uni2117" unicode="&#x2117;" horiz-adv-x="1607" 
d="M1300 776q0 -105 -75 -168t-207 -63h-281v-189h-133v299h424q62 0 96.5 33t34.5 88q0 56 -34.5 88.5t-96.5 32.5h-385l94 115h281q131 0 206.5 -65t75.5 -171zM219 686q0 116 36 224.5t101.5 195.5t152.5 152.5t195.5 101t223.5 35.5q192 0 355.5 -94.5t259 -258
t95.5 -356.5q0 -144 -56.5 -275.5t-151.5 -226.5t-226.5 -151t-275.5 -56q-115 0 -223.5 36t-195.5 101.5t-152.5 152.5t-101.5 195.5t-36 223.5zM305 684q0 -128 49 -244.5t132.5 -200t200 -133t245.5 -49.5q128 0 244.5 49.5t201 133t134 200t49.5 244.5q0 170 -84 316
t-229 231.5t-316 85.5q-129 0 -245.5 -50.5t-200 -136t-132.5 -202t-49 -244.5z" />
    <glyph glyph-name="trademark" unicode="&#x2122;" horiz-adv-x="1183" 
d="M694 1370v-123h-151v-450h-127v450h-152v123h430zM1282 1370v-573h-125v215l-90 -215h-94l-88 213v-213h-127v573h114l150 -362l147 362h113z" />
    <glyph glyph-name="onethird" unicode="&#x2153;" horiz-adv-x="1890" 
d="M301 1229l158 178h252l-121 -684h-213l90 506h-166zM1485 1446h172l-1360 -1524h-186zM920 -18l163 176h469q74 0 74 55q0 37 -57 37h-412l139 147h303q27 0 46.5 14t19.5 42q0 34 -49 34h-574l166 179h428q114 0 177 -40t63 -116q0 -68 -38 -115t-83 -61q38 -12 60 -44
t22 -77q0 -104 -77 -167.5t-238 -63.5h-602z" />
    <glyph glyph-name="twothirds" unicode="&#x2154;" horiz-adv-x="2121" 
d="M330 1229l166 178h401q262 0 262 -172q0 -107 -77.5 -172.5t-219.5 -65.5h-325q-73 0 -82 -51l-9 -47h662l-168 -176h-729l39 221q30 189 291 189h325q82 0 82 59q0 37 -65 37h-553zM1776 1446h172l-1360 -1524h-187zM1153 -18l164 176h469q74 0 74 55q0 37 -58 37h-411
l139 147h303q27 0 46 14t19 42q0 34 -49 34h-573l166 179h428q114 0 176.5 -40t62.5 -116q0 -68 -37.5 -115t-82.5 -61q38 -12 60 -44t22 -77q0 -104 -77.5 -167.5t-238.5 -63.5h-602z" />
    <glyph glyph-name="oneeighth" unicode="&#x215b;" horiz-adv-x="1970" 
d="M301 1229l158 178h252l-121 -684h-213l90 506h-166zM1524 1446h172l-1360 -1524h-186zM1604 -18h-336q-246 0 -246 151q0 76 38.5 129.5t98.5 71.5q-31 10 -51.5 37.5t-20.5 68.5q0 109 85.5 167.5t222.5 58.5h323q114 0 176 -40t62 -116q0 -69 -37 -115.5t-82 -60.5
q36 -12 58 -44t22 -77q0 -104 -76 -167.5t-237 -63.5zM1651 250h-336q-76 0 -76 -57q0 -35 61 -35h334q74 0 74 55q0 37 -57 37zM1698 487h-344q-28 0 -48 -12.5t-20 -40.5q0 -37 53 -37h342q27 0 46.5 14t19.5 42q0 34 -49 34z" />
    <glyph glyph-name="threeeighths" unicode="&#x215c;" horiz-adv-x="2236" 
d="M211 723l164 176h469q74 0 74 55q0 37 -58 37h-411l139 148h303q27 0 46 13.5t19 41.5q0 35 -49 35h-573l166 178h428q114 0 176.5 -40t62.5 -116q0 -68 -37.5 -115t-82.5 -61q37 -12 59 -44t22 -77q0 -104 -77 -167.5t-238 -63.5h-602zM1829 1446h172l-1360 -1524h-186z
M1870 -18h-336q-246 0 -246 151q0 76 38.5 129.5t98.5 71.5q-30 10 -50.5 37t-20.5 69q0 109 85 167.5t222 58.5h324q113 0 175 -40t62 -116q0 -69 -37 -115.5t-82 -60.5q36 -12 58 -44t22 -77q0 -104 -76 -167.5t-237 -63.5zM1917 250h-336q-76 0 -76 -57q0 -35 62 -35h334
q73 0 73 55q0 37 -57 37zM1964 487h-344q-28 0 -48 -12.5t-20 -40.5q0 -37 54 -37h342q27 0 46 14t19 42q0 34 -49 34z" />
    <glyph glyph-name="fiveeighths" unicode="&#x215d;" horiz-adv-x="2172" 
d="M367 1407h774l-166 -178h-428l-19 -96h332q230 0 230 -150q0 -123 -87.5 -191.5t-250.5 -68.5h-541l168 176h422q40 0 60 13.5t20 45.5q0 39 -64 39h-522zM1765 1446h172l-1359 -1524h-187zM1806 -18h-336q-245 0 -245 151q0 76 38.5 129.5t98.5 71.5q-31 10 -51.5 37.5
t-20.5 68.5q0 109 85 167.5t222 58.5h324q114 0 176 -40t62 -116q0 -69 -37 -115.5t-82 -60.5q36 -12 58 -44t22 -77q0 -104 -76.5 -167.5t-237.5 -63.5zM1853 250h-335q-76 0 -76 -57q0 -35 61 -35h334q74 0 74 55q0 37 -58 37zM1901 487h-345q-27 0 -47 -12.5t-20 -40.5
q0 -37 53 -37h342q27 0 46.5 14t19.5 42q0 34 -49 34z" />
    <glyph glyph-name="seveneighths" unicode="&#x215e;" horiz-adv-x="2011" 
d="M1110 1235l-528 -512h-269l404 377q107 102 149 133q-39 -4 -194 -4h-371l166 178h592q50 0 75 -21t25 -57q0 -45 -49 -94zM1604 1446h172l-1360 -1524h-187zM1645 -18h-336q-246 0 -246 151q0 76 38.5 129.5t98.5 71.5q-31 10 -51.5 37.5t-20.5 68.5q0 109 85.5 167.5
t222.5 58.5h323q114 0 176 -40t62 -116q0 -69 -37 -115.5t-82 -60.5q36 -12 58 -44t22 -77q0 -104 -76 -167.5t-237 -63.5zM1692 250h-336q-76 0 -76 -57q0 -35 61 -35h334q74 0 74 55q0 37 -57 37zM1739 487h-344q-28 0 -48 -12.5t-20 -40.5q0 -37 53 -37h342q27 0 46.5 14
t19.5 42q0 34 -49 34z" />
    <glyph glyph-name="minus" unicode="&#x2212;" horiz-adv-x="1288" 
d="M1346 811l-41 -229h-1119l41 229h1119z" />
    <glyph glyph-name="approxequal" unicode="&#x2248;" horiz-adv-x="1161" 
d="M905 705q-51 0 -109.5 23.5t-102 52t-101 52t-107.5 23.5q-128 0 -282 -168l57 336q155 135 307 135q49 0 105.5 -23.5t100.5 -51t103.5 -51t112.5 -23.5q130 0 283 164l-60 -336q-155 -133 -307 -133zM827 219q-51 0 -109 23.5t-102 52.5t-101 52.5t-107 23.5
q-129 0 -283 -168l57 336q155 135 307 135q49 0 105.5 -23.5t100.5 -51.5t103.5 -51.5t112.5 -23.5q130 0 283 164l-59 -336q-155 -133 -308 -133z" />
    <glyph glyph-name="notequal" unicode="&#x2260;" horiz-adv-x="1288" 
d="M1393 1081l-39 -229h-346l-279 -313h569l-41 -230h-733l-348 -387h-184l350 387h-203l41 230h367l282 313h-593l38 229h760l330 365h172l-326 -365h183z" />
    <glyph glyph-name="lessequal" unicode="&#x2264;" horiz-adv-x="1251" 
d="M1231 360l-45 -249l-924 471q-28 13 -42.5 37.5t-14.5 52.5q0 40 24 75t72 54l1090 471l-43 -250l-775 -332zM1202 -4l-41 -229h-1118l41 229h1118z" />
    <glyph glyph-name="greaterequal" unicode="&#x2265;" horiz-adv-x="1251" 
d="M104 111l46 249l772 330l-656 332l43 250l926 -471q55 -28 55 -94q0 -37 -24.5 -71.5t-69.5 -53.5zM1202 -4l-41 -229h-1118l41 229h1118z" />
    <glyph glyph-name="CR" horiz-adv-x="784" 
 />
    </font>
</defs>
</svg>
